<svg xmlns="http://www.w3.org/2000/svg" xmlns:xlink="http://www.w3.org/1999/xlink" width="500" zoomAndPan="magnify" viewBox="0 0 375 374.999991" height="500" preserveAspectRatio="xMidYMid meet" version="1.0"><defs><clipPath id="e95b233852"><path d="M 1 14 L 370 14 L 370 353 L 1 353 Z M 1 14 " clip-rule="nonzero"/></clipPath><clipPath id="47412d2cf2"><path d="M 350.265625 132.546875 C 317.773438 69.398438 252.308594 23.105469 182.554688 15.832031 C 125.632812 7.101562 88.179688 33.921875 57.59375 70.851562 C 27.007812 107.78125 10.742188 154.855469 4.179688 202.339844 C 0.707031 227.40625 0 254.003906 10.632812 276.980469 C 24.097656 306.113281 53.527344 324.652344 83.480469 336.179688 C 164.054688 367.175781 262.976562 355.164062 325.683594 295.78125 C 345.304688 277.207031 361.378906 253.929688 367.125 227.519531 C 374.101562 195.476562 365.257812 161.71875 350.265625 132.546875 Z M 350.265625 132.546875 " clip-rule="nonzero"/></clipPath></defs><g clip-path="url(#e95b233852)"><g clip-path="url(#47412d2cf2)"><path fill="#fe705a" d="M 0 7.101562 L 374.238281 7.101562 L 374.238281 367.175781 L 0 367.175781 Z M 0 7.101562 " fill-opacity="1" fill-rule="nonzero"/></g></g></svg>