<svg xmlns="http://www.w3.org/2000/svg" xmlns:xlink="http://www.w3.org/1999/xlink" width="500" zoomAndPan="magnify" viewBox="0 0 375 225" height="300" preserveAspectRatio="xMidYMid meet" version="1.0"><defs><g/><clipPath id="ab8e81be9f"><path d="M 35.503906 40.757812 L 51.40625 40.757812 L 51.40625 56.660156 L 35.503906 56.660156 Z M 35.503906 40.757812 " clip-rule="nonzero"/></clipPath><clipPath id="0f401e61fd"><path d="M 43.453125 40.757812 L 45.984375 46.179688 L 51.40625 48.707031 L 45.984375 51.238281 L 43.453125 56.660156 L 40.925781 51.238281 L 35.503906 48.707031 L 40.925781 46.179688 Z M 43.453125 40.757812 " clip-rule="nonzero"/></clipPath><clipPath id="c31d864fc4"><path d="M 49.855469 27.488281 L 61.085938 27.488281 L 61.085938 38.722656 L 49.855469 38.722656 Z M 49.855469 27.488281 " clip-rule="nonzero"/></clipPath><clipPath id="a49ef4bdf9"><path d="M 55.46875 27.488281 L 57.257812 31.320312 L 61.085938 33.105469 L 57.257812 34.894531 L 55.46875 38.722656 L 53.683594 34.894531 L 49.855469 33.105469 L 53.683594 31.320312 Z M 55.46875 27.488281 " clip-rule="nonzero"/></clipPath><clipPath id="260de5e38a"><path d="M 338.816406 141.105469 L 350.046875 141.105469 L 350.046875 152.335938 L 338.816406 152.335938 Z M 338.816406 141.105469 " clip-rule="nonzero"/></clipPath><clipPath id="e810b89b1a"><path d="M 344.429688 141.105469 L 346.21875 144.933594 L 350.046875 146.722656 L 346.21875 148.507812 L 344.429688 152.335938 L 342.644531 148.507812 L 338.816406 146.722656 L 342.644531 144.933594 Z M 344.429688 141.105469 " clip-rule="nonzero"/></clipPath><clipPath id="13223b077d"><path d="M 323.859375 152.335938 L 339.761719 152.335938 L 339.761719 168.238281 L 323.859375 168.238281 Z M 323.859375 152.335938 " clip-rule="nonzero"/></clipPath><clipPath id="52f3bb5187"><path d="M 331.808594 152.335938 L 334.339844 157.757812 L 339.761719 160.289062 L 334.339844 162.820312 L 331.808594 168.238281 L 329.277344 162.820312 L 323.859375 160.289062 L 329.277344 157.757812 Z M 331.808594 152.335938 " clip-rule="nonzero"/></clipPath><clipPath id="bd5b9b68d3"><path d="M 316.390625 66.320312 L 329.773438 66.320312 L 329.773438 79.703125 L 316.390625 79.703125 Z M 316.390625 66.320312 " clip-rule="nonzero"/></clipPath><clipPath id="e70284e2d6"><path d="M 323.082031 66.320312 L 325.210938 70.882812 L 329.773438 73.011719 L 325.210938 75.140625 L 323.082031 79.703125 L 320.953125 75.140625 L 316.390625 73.011719 L 320.953125 70.882812 Z M 323.082031 66.320312 " clip-rule="nonzero"/></clipPath><clipPath id="0aec80756f"><path d="M 43.164062 153.898438 L 56.546875 153.898438 L 56.546875 167.28125 L 43.164062 167.28125 Z M 43.164062 153.898438 " clip-rule="nonzero"/></clipPath><clipPath id="bb9d7df6d3"><path d="M 49.855469 153.898438 L 51.984375 158.460938 L 56.546875 160.589844 L 51.984375 162.71875 L 49.855469 167.28125 L 47.726562 162.71875 L 43.164062 160.589844 L 47.726562 158.460938 Z M 49.855469 153.898438 " clip-rule="nonzero"/></clipPath><clipPath id="e14c6f693e"><path d="M 212.1875 184.128906 L 225.570312 184.128906 L 225.570312 197.511719 L 212.1875 197.511719 Z M 212.1875 184.128906 " clip-rule="nonzero"/></clipPath><clipPath id="77a74957fd"><path d="M 218.878906 184.128906 L 221.007812 188.691406 L 225.570312 190.820312 L 221.007812 192.949219 L 218.878906 197.511719 L 216.75 192.949219 L 212.1875 190.820312 L 216.75 188.691406 Z M 218.878906 184.128906 " clip-rule="nonzero"/></clipPath><clipPath id="4bb623c005"><path d="M 174.164062 50.421875 L 190.0625 50.421875 L 190.0625 66.320312 L 174.164062 66.320312 Z M 174.164062 50.421875 " clip-rule="nonzero"/></clipPath><clipPath id="88c64c1b37"><path d="M 182.113281 50.421875 L 184.644531 55.839844 L 190.0625 58.371094 L 184.644531 60.902344 L 182.113281 66.320312 L 179.582031 60.902344 L 174.164062 58.371094 L 179.582031 55.839844 Z M 182.113281 50.421875 " clip-rule="nonzero"/></clipPath></defs><g fill="#c64469" fill-opacity="1"><g transform="translate(26.959896, 136.714335)"><g><path d="M 17.722656 -60.269531 C 17.632812 -61.890625 17.542969 -63.507812 17.363281 -65.128906 C 17.09375 -66.929688 16.820312 -67.109375 15.023438 -67.109375 C 13.761719 -67.109375 12.503906 -67.019531 11.246094 -66.929688 C 8.457031 -66.75 8.457031 -66.660156 7.917969 -64.050781 C 7.734375 -63.148438 7.644531 -62.25 7.464844 -61.261719 C 6.746094 -55.324219 6.386719 -49.296875 5.847656 -43.359375 C 4.679688 -30.496094 3.867188 -17.632812 4.949219 -4.679688 C 5.308594 0 4.949219 0.71875 11.066406 0.449219 C 13.492188 0.269531 13.851562 -0.179688 13.851562 -2.609375 C 14.125 -13.941406 15.382812 -25.277344 16.371094 -36.613281 C 17.183594 -45.25 20.601562 -52.894531 25.816406 -59.820312 C 27.347656 -61.800781 29.144531 -63.417969 31.214844 -64.859375 C 33.734375 -66.660156 35.894531 -65.9375 37.0625 -63.058594 C 37.332031 -62.25 37.511719 -61.441406 37.601562 -60.542969 C 38.589844 -53.34375 38.230469 -46.148438 37.242188 -39.042969 C 36.164062 -31.035156 35.441406 -23.027344 35.621094 -14.933594 C 35.621094 -9.714844 36.703125 -4.679688 39.761719 -0.269531 C 41.378906 1.980469 43.359375 3.328125 46.058594 3.777344 C 51.09375 4.679688 55.683594 3.6875 59.371094 -0.179688 C 60.722656 -1.527344 61.890625 -3.058594 62.96875 -4.769531 C 66.117188 -9.984375 68.1875 -15.742188 69.988281 -21.589844 C 70.527344 -23.390625 69.714844 -24.109375 67.917969 -23.75 C 66.929688 -23.570312 66.839844 -22.757812 66.660156 -22.039062 C 65.488281 -18.53125 64.410156 -14.933594 62.878906 -11.515625 C 60.992188 -7.195312 58.742188 -3.148438 54.695312 -0.449219 C 50.285156 2.609375 47.945312 1.980469 45.789062 -2.878906 C 44.167969 -6.476562 43.71875 -10.253906 43.808594 -14.125 C 43.988281 -22.21875 44.796875 -30.316406 45.609375 -38.410156 C 46.328125 -44.707031 46.597656 -50.914062 45.429688 -57.210938 C 44.980469 -59.371094 44.347656 -61.441406 43.269531 -63.417969 C 40.75 -67.828125 36.164062 -69.625 31.304688 -68.1875 C 29.597656 -67.648438 27.976562 -66.839844 26.539062 -65.847656 C 24.019531 -64.050781 21.949219 -61.800781 20.058594 -59.371094 C 19.519531 -58.652344 19.160156 -57.753906 17.722656 -56.851562 C 17.722656 -58.292969 17.8125 -59.28125 17.722656 -60.269531 Z M 17.722656 -60.269531 "/></g></g></g><g fill="#c64469" fill-opacity="1"><g transform="translate(91.369163, 136.714335)"><g><path d="M 26.449219 -26.265625 C 24.917969 -26.808594 24.738281 -26.808594 23.839844 -25.1875 C 23.75 -24.917969 23.570312 -24.558594 23.390625 -24.289062 C 20.421875 -18.441406 17.453125 -12.683594 14.484375 -6.835938 C 13.941406 -5.757812 13.402344 -4.769531 12.773438 -3.777344 C 11.875 -2.429688 11.066406 -2.519531 10.253906 -3.867188 C 9.535156 -5.21875 9.085938 -6.746094 8.816406 -8.1875 C 8.1875 -12.054688 8.1875 -16.011719 8.007812 -19.878906 C 7.734375 -26.988281 8.457031 -34.09375 8.996094 -41.199219 C 9.265625 -44.707031 9.175781 -44.796875 5.488281 -44.886719 C 5.308594 -44.886719 5.039062 -44.886719 4.769531 -44.886719 C 3.867188 -44.980469 3.328125 -44.617188 3.058594 -43.71875 C 2.789062 -43 2.429688 -42.371094 2.25 -41.558594 C 0.539062 -34.902344 -0.539062 -28.15625 -0.539062 -20.78125 C -0.628906 -17.363281 -0.359375 -13.492188 0.539062 -9.625 C 1.167969 -7.195312 1.980469 -4.949219 3.507812 -2.96875 C 7.285156 1.890625 15.113281 1.4375 18.171875 -3.867188 C 18.980469 -5.308594 19.699219 -6.925781 20.332031 -8.457031 C 22.578125 -13.582031 24.828125 -18.710938 27.078125 -23.839844 C 27.4375 -24.828125 27.886719 -25.726562 26.449219 -26.265625 Z M 7.464844 -49.65625 C 9.894531 -49.746094 11.335938 -51.09375 11.335938 -53.34375 C 11.335938 -55.503906 9.804688 -56.851562 7.195312 -56.761719 C 5.21875 -56.761719 3.597656 -54.875 3.6875 -52.714844 C 3.6875 -50.644531 4.949219 -49.65625 7.464844 -49.65625 Z M 7.464844 -49.65625 "/></g></g></g><g fill="#c64469" fill-opacity="1"><g transform="translate(115.387705, 136.714335)"><g><path d="M 17.273438 -43.449219 C 15.023438 -33.105469 13.941406 -22.667969 14.035156 -12.144531 C 14.035156 -6.566406 14.933594 -1.167969 17.722656 3.867188 C 18.261719 4.859375 18.890625 5.847656 19.699219 6.746094 C 22.21875 9.714844 29.867188 9.894531 33.105469 6.746094 C 35.714844 4.136719 37.78125 1.167969 39.492188 -2.070312 C 43.539062 -9.625 46.148438 -17.8125 48.578125 -25.996094 C 48.847656 -26.988281 49.117188 -27.976562 49.296875 -28.964844 C 49.476562 -29.414062 49.566406 -29.867188 49.117188 -30.136719 C 48.128906 -30.765625 47.046875 -30.675781 45.96875 -30.675781 C 45.160156 -30.675781 44.980469 -29.777344 44.796875 -29.144531 C 43.449219 -25.457031 42.011719 -21.679688 40.75 -17.902344 C 38.953125 -12.414062 36.972656 -6.835938 34.003906 -1.800781 C 32.566406 0.628906 31.035156 2.96875 28.875 4.859375 C 27.4375 6.117188 26.898438 6.027344 26.265625 4.136719 C 25.1875 0.988281 24.828125 -2.339844 24.648438 -5.667969 C 24.378906 -13.582031 24.828125 -21.410156 25.996094 -29.234375 C 26.71875 -33.824219 27.527344 -38.410156 28.066406 -43.089844 C 28.515625 -46.417969 27.257812 -47.765625 23.839844 -47.765625 C 21.5 -47.765625 19.070312 -47.765625 16.730469 -47.945312 C 14.664062 -48.035156 12.59375 -48.308594 10.886719 -49.296875 C 8.90625 -50.464844 6.835938 -50.554688 4.769531 -50.824219 C 3.417969 -51.003906 2.609375 -50.644531 2.429688 -49.207031 C 2.339844 -48.488281 2.160156 -47.855469 2.070312 -47.226562 C 1.800781 -43.089844 1.347656 -38.953125 1.078125 -34.722656 C 0.628906 -25.90625 -0.269531 -17.183594 -1.710938 -8.457031 C -2.160156 -6.207031 -2.519531 -3.957031 -2.519531 -1.710938 C -2.519531 -1.078125 -2.609375 -0.539062 -1.890625 -0.179688 C 0.539062 0.808594 1.980469 0.0898438 2.609375 -2.339844 C 2.609375 -2.609375 2.699219 -2.878906 2.699219 -3.148438 C 5.308594 -14.84375 7.195312 -26.628906 7.917969 -38.589844 C 8.097656 -41.109375 8.367188 -43.628906 8.546875 -46.417969 C 11.515625 -45.609375 14.394531 -45.519531 17.363281 -45.160156 C 17.632812 -44.347656 17.363281 -43.898438 17.273438 -43.449219 Z M 17.273438 -43.449219 "/></g></g></g><g fill="#c64469" fill-opacity="1"><g transform="translate(158.387187, 136.714335)"><g><path d="M 70.976562 -26.808594 C 69.988281 -27.257812 69.175781 -27.257812 68.636719 -26.085938 C 68.277344 -25.1875 67.828125 -24.199219 67.378906 -23.300781 C 65.039062 -18.53125 62.699219 -13.671875 59.820312 -9.175781 C 59.191406 -8.277344 58.5625 -7.375 57.664062 -6.746094 C 56.851562 -6.117188 56.132812 -6.117188 55.414062 -6.925781 C 54.515625 -8.007812 54.0625 -9.265625 53.792969 -10.613281 C 53.253906 -14.394531 52.714844 -18.171875 52.625 -21.949219 C 52.535156 -24.738281 52.175781 -27.527344 51.457031 -30.226562 C 49.925781 -35.53125 45.609375 -37.152344 41.019531 -34.183594 C 40.210938 -33.644531 39.492188 -33.105469 38.863281 -32.472656 C 37.0625 -30.765625 35.714844 -28.875 34.453125 -26.898438 C 34.003906 -26.265625 33.824219 -25.457031 32.925781 -25.097656 C 32.746094 -27.617188 32.566406 -30.046875 32.382812 -32.382812 C 32.113281 -35.621094 31.574219 -38.863281 30.316406 -41.828125 C 27.976562 -47.675781 22.488281 -49.566406 17 -46.507812 C 14.394531 -45.070312 12.503906 -42.910156 10.792969 -40.570312 C 10.433594 -39.941406 10.164062 -39.132812 9.175781 -38.5 C 9.175781 -39.3125 9.175781 -39.671875 9.175781 -40.121094 C 9.355469 -43 9.175781 -45.878906 8.996094 -48.757812 C 8.816406 -50.914062 8.816406 -51.003906 6.566406 -50.914062 C 5.308594 -50.824219 4.136719 -50.554688 2.96875 -50.644531 C 1.621094 -50.644531 0.988281 -50.015625 0.808594 -48.757812 C 0.71875 -48.308594 0.628906 -47.945312 0.628906 -47.496094 C -1.257812 -35.714844 -1.980469 -23.929688 -1.257812 -11.964844 C -1.167969 -8.90625 -0.898438 -5.757812 -0.269531 -2.609375 C 0 -0.898438 0.269531 -0.71875 2.070312 -0.628906 C 3.328125 -0.539062 4.585938 -0.539062 5.847656 -0.539062 C 7.644531 -0.628906 7.734375 -0.71875 7.917969 -2.429688 C 8.007812 -4.136719 8.277344 -5.847656 8.367188 -7.464844 C 8.726562 -16.910156 11.515625 -25.816406 14.574219 -34.632812 C 15.382812 -36.972656 16.460938 -39.222656 17.902344 -41.199219 C 18.441406 -42.011719 18.980469 -42.730469 19.789062 -43.269531 C 21.050781 -44.167969 22.128906 -43.988281 22.9375 -42.550781 C 23.75 -41.109375 24.199219 -39.402344 24.558594 -37.78125 C 25.816406 -32.203125 26.085938 -26.539062 26.085938 -20.78125 C 26.175781 -15.5625 26.085938 -10.34375 26.085938 -5.039062 C 26.085938 -2.878906 26.175781 -2.789062 28.425781 -2.609375 C 32.746094 -2.339844 32.023438 -2.070312 32.835938 -5.9375 C 34.003906 -11.785156 35.621094 -17.542969 38.050781 -23.117188 C 39.042969 -25.546875 40.390625 -27.617188 42.28125 -29.414062 C 43.179688 -30.316406 43.71875 -30.136719 44.078125 -28.964844 C 44.527344 -27.796875 44.796875 -26.539062 44.886719 -25.277344 C 45.339844 -21.949219 45.699219 -18.710938 46.507812 -15.472656 C 47.136719 -12.59375 48.035156 -9.714844 49.476562 -7.105469 C 51.90625 -2.699219 58.023438 -2.070312 60.902344 -5.578125 C 61.621094 -6.476562 62.519531 -7.375 63.148438 -8.367188 C 66.839844 -13.402344 69.085938 -19.160156 71.425781 -24.917969 C 71.695312 -25.636719 71.964844 -26.449219 70.976562 -26.808594 Z M 70.976562 -26.808594 "/></g></g></g><g fill="#c64469" fill-opacity="1"><g transform="translate(225.675088, 136.714335)"><g><path d="M 48.21875 -25.1875 C 46.777344 -25.816406 46.507812 -25.726562 45.609375 -23.929688 C 43.628906 -20.058594 41.828125 -16.101562 39.851562 -12.324219 C 37.511719 -7.734375 35.261719 -3.148438 32.292969 0.988281 C 31.84375 1.710938 31.484375 2.609375 30.496094 2.878906 C 29.957031 1.800781 29.957031 0.808594 29.957031 -0.269531 C 29.867188 -3.777344 29.957031 -7.375 30.226562 -10.886719 C 30.765625 -20.511719 31.304688 -30.046875 31.394531 -39.671875 C 31.394531 -40.75 31.394531 -41.828125 31.125 -42.910156 C 30.945312 -43.449219 30.765625 -43.988281 30.136719 -43.988281 C 27.617188 -43.988281 25.097656 -44.257812 22.667969 -43.449219 C 21.859375 -43.179688 21.320312 -43.089844 20.511719 -43.269531 C 18.53125 -43.71875 16.550781 -44.078125 14.484375 -43.628906 C 8.1875 -42.460938 4.316406 -38.410156 1.890625 -32.835938 C -0.179688 -28.15625 -0.808594 -23.207031 -0.449219 -18.171875 C -0.359375 -15.742188 0.0898438 -13.3125 1.078125 -10.976562 C 1.980469 -8.636719 3.777344 -7.644531 6.207031 -7.644531 C 8.1875 -7.554688 9.894531 -8.277344 11.246094 -9.714844 C 12.503906 -11.15625 13.671875 -12.773438 14.664062 -14.484375 C 15.652344 -16.191406 16.640625 -17.902344 17.722656 -19.699219 C 18.351562 -19.160156 18.082031 -18.621094 18.171875 -18.171875 C 18.351562 -14.664062 18.441406 -11.066406 19.070312 -7.554688 C 19.609375 -3.6875 20.332031 0.179688 22.21875 3.6875 C 24.738281 8.367188 31.304688 9.175781 34.902344 5.21875 C 36.253906 3.777344 37.332031 2.160156 38.230469 0.359375 C 42.101562 -7.105469 45.789062 -14.753906 49.207031 -22.488281 C 50.015625 -24.289062 49.925781 -24.46875 48.21875 -25.1875 Z M 20.511719 -36.882812 C 20.421875 -35.894531 20.242188 -34.8125 19.789062 -33.914062 C 16.730469 -26.71875 13.402344 -19.699219 9.355469 -13.042969 C 8.726562 -12.054688 8.277344 -10.523438 6.835938 -10.886719 C 5.398438 -11.246094 6.117188 -12.863281 5.9375 -13.941406 C 5.9375 -14.394531 5.9375 -14.933594 5.9375 -15.472656 C 6.117188 -21.949219 7.375 -28.246094 10.886719 -33.914062 C 11.875 -35.441406 12.953125 -36.972656 14.304688 -38.320312 C 15.023438 -39.042969 15.832031 -39.582031 16.910156 -39.851562 C 19.25 -40.480469 20.78125 -39.3125 20.511719 -36.882812 Z M 20.511719 -36.882812 "/></g></g></g><g fill="#c64469" fill-opacity="1"><g transform="translate(272.002977, 136.714335)"><g><path d="M -3.148438 -29.867188 C -2.609375 -23.207031 -1.4375 -16.640625 0.898438 -10.253906 C 2.070312 -6.835938 3.6875 -3.597656 6.027344 -0.71875 C 7.734375 1.4375 9.984375 2.699219 12.773438 2.96875 C 17.09375 3.417969 20.601562 2.160156 23.300781 -1.257812 C 24.109375 -2.25 24.828125 -3.328125 25.546875 -4.316406 C 29.414062 -10.34375 31.394531 -17.09375 34.003906 -23.660156 C 34.09375 -23.929688 34.09375 -24.199219 34.09375 -24.378906 C 34.183594 -24.738281 34.003906 -25.097656 33.734375 -25.277344 C 32.292969 -26.265625 30.675781 -25.816406 29.957031 -24.289062 C 29.777344 -23.75 29.597656 -23.300781 29.414062 -22.847656 C 26.898438 -17.363281 24.738281 -11.695312 21.769531 -6.476562 C 20.871094 -4.859375 19.878906 -3.238281 18.441406 -1.980469 C 15.742188 0.539062 13.761719 0.179688 12.144531 -3.058594 C 12.054688 -3.238281 11.875 -3.507812 11.785156 -3.777344 C 9.714844 -9.265625 8.457031 -14.933594 8.1875 -20.78125 C 8.097656 -21.769531 8.367188 -22.578125 8.996094 -23.390625 C 15.113281 -31.753906 19.429688 -41.019531 23.207031 -50.554688 C 24.917969 -54.875 25.996094 -59.371094 26.265625 -63.960938 C 26.539062 -67.199219 26.265625 -70.347656 25.007812 -73.40625 C 23.207031 -77.632812 19.160156 -79.792969 14.664062 -78.890625 C 11.066406 -78.171875 8.367188 -76.105469 6.117188 -73.316406 C 3.507812 -69.988281 1.800781 -66.207031 0.449219 -62.339844 C -2.429688 -54.152344 -3.328125 -45.789062 -3.507812 -36.523438 C -3.417969 -34.8125 -3.417969 -32.382812 -3.148438 -29.867188 Z M 7.285156 -30.496094 C 6.566406 -43.449219 7.734375 -56.222656 12.324219 -68.457031 C 12.953125 -70.078125 13.582031 -71.605469 14.574219 -73.046875 C 16.011719 -75.113281 17.183594 -75.023438 18.351562 -72.683594 C 19.789062 -69.898438 20.242188 -66.929688 20.058594 -63.78125 C 19.789062 -57.300781 18.261719 -51.09375 15.742188 -45.160156 C 13.851562 -40.570312 11.875 -36.074219 9.535156 -31.753906 C 8.996094 -30.945312 8.546875 -30.046875 7.917969 -29.054688 C 7.195312 -29.597656 7.285156 -30.046875 7.285156 -30.496094 Z M 7.285156 -30.496094 "/></g></g></g><g fill="#c64469" fill-opacity="1"><g transform="translate(301.688805, 136.714335)"><g><path d="M 48.21875 -25.1875 C 46.777344 -25.816406 46.507812 -25.726562 45.609375 -23.929688 C 43.628906 -20.058594 41.828125 -16.101562 39.851562 -12.324219 C 37.511719 -7.734375 35.261719 -3.148438 32.292969 0.988281 C 31.84375 1.710938 31.484375 2.609375 30.496094 2.878906 C 29.957031 1.800781 29.957031 0.808594 29.957031 -0.269531 C 29.867188 -3.777344 29.957031 -7.375 30.226562 -10.886719 C 30.765625 -20.511719 31.304688 -30.046875 31.394531 -39.671875 C 31.394531 -40.75 31.394531 -41.828125 31.125 -42.910156 C 30.945312 -43.449219 30.765625 -43.988281 30.136719 -43.988281 C 27.617188 -43.988281 25.097656 -44.257812 22.667969 -43.449219 C 21.859375 -43.179688 21.320312 -43.089844 20.511719 -43.269531 C 18.53125 -43.71875 16.550781 -44.078125 14.484375 -43.628906 C 8.1875 -42.460938 4.316406 -38.410156 1.890625 -32.835938 C -0.179688 -28.15625 -0.808594 -23.207031 -0.449219 -18.171875 C -0.359375 -15.742188 0.0898438 -13.3125 1.078125 -10.976562 C 1.980469 -8.636719 3.777344 -7.644531 6.207031 -7.644531 C 8.1875 -7.554688 9.894531 -8.277344 11.246094 -9.714844 C 12.503906 -11.15625 13.671875 -12.773438 14.664062 -14.484375 C 15.652344 -16.191406 16.640625 -17.902344 17.722656 -19.699219 C 18.351562 -19.160156 18.082031 -18.621094 18.171875 -18.171875 C 18.351562 -14.664062 18.441406 -11.066406 19.070312 -7.554688 C 19.609375 -3.6875 20.332031 0.179688 22.21875 3.6875 C 24.738281 8.367188 31.304688 9.175781 34.902344 5.21875 C 36.253906 3.777344 37.332031 2.160156 38.230469 0.359375 C 42.101562 -7.105469 45.789062 -14.753906 49.207031 -22.488281 C 50.015625 -24.289062 49.925781 -24.46875 48.21875 -25.1875 Z M 20.511719 -36.882812 C 20.421875 -35.894531 20.242188 -34.8125 19.789062 -33.914062 C 16.730469 -26.71875 13.402344 -19.699219 9.355469 -13.042969 C 8.726562 -12.054688 8.277344 -10.523438 6.835938 -10.886719 C 5.398438 -11.246094 6.117188 -12.863281 5.9375 -13.941406 C 5.9375 -14.394531 5.9375 -14.933594 5.9375 -15.472656 C 6.117188 -21.949219 7.375 -28.246094 10.886719 -33.914062 C 11.875 -35.441406 12.953125 -36.972656 14.304688 -38.320312 C 15.023438 -39.042969 15.832031 -39.582031 16.910156 -39.851562 C 19.25 -40.480469 20.78125 -39.3125 20.511719 -36.882812 Z M 20.511719 -36.882812 "/></g></g></g><g fill="#e17191" fill-opacity="1"><g transform="translate(64.7522, 172.843389)"><g><path d="M 9.65625 -10.265625 L 9.65625 0 L 8.109375 0 L 2.390625 -7.875 L 2.390625 0 L 0.8125 0 L 0.8125 -10.265625 L 2.40625 -10.265625 L 8.125 -2.34375 L 8.125 -10.265625 Z M 9.65625 -10.265625 "/></g></g></g><g fill="#e17191" fill-opacity="1"><g transform="translate(75.241346, 172.843389)"><g><path d="M 3.59375 -9.015625 L 3.59375 -1.25 L 4.34375 -1.25 L 4.34375 0 L 1.3125 0 L 1.3125 -1.25 L 2.078125 -1.25 L 2.078125 -9.015625 L 1.3125 -9.015625 L 1.3125 -10.265625 L 4.34375 -10.265625 L 4.34375 -9.015625 Z M 3.59375 -9.015625 "/></g></g></g><g fill="#e17191" fill-opacity="1"><g transform="translate(80.927187, 172.843389)"><g><path d="M 9.28125 0 L 7.375 0 L 4.15625 -4.421875 L 2.359375 -4.421875 L 2.359375 0 L 0.84375 0 L 0.84375 -10.265625 L 5 -10.265625 C 5.40625 -10.265625 5.789062 -10.1875 6.15625 -10.03125 C 6.519531 -9.875 6.832031 -9.664062 7.09375 -9.40625 C 7.363281 -9.144531 7.570312 -8.835938 7.71875 -8.484375 C 7.875 -8.128906 7.953125 -7.75 7.953125 -7.34375 C 7.953125 -7.007812 7.898438 -6.691406 7.796875 -6.390625 C 7.691406 -6.097656 7.546875 -5.828125 7.359375 -5.578125 C 7.171875 -5.335938 6.945312 -5.128906 6.6875 -4.953125 C 6.425781 -4.773438 6.140625 -4.644531 5.828125 -4.5625 Z M 5 -5.84375 C 5.207031 -5.84375 5.398438 -5.882812 5.578125 -5.96875 C 5.765625 -6.050781 5.921875 -6.160156 6.046875 -6.296875 C 6.179688 -6.429688 6.285156 -6.59375 6.359375 -6.78125 C 6.441406 -6.96875 6.484375 -7.164062 6.484375 -7.375 C 6.484375 -7.59375 6.441406 -7.789062 6.359375 -7.96875 C 6.285156 -8.15625 6.179688 -8.316406 6.046875 -8.453125 C 5.921875 -8.597656 5.765625 -8.707031 5.578125 -8.78125 C 5.398438 -8.863281 5.207031 -8.90625 5 -8.90625 L 2.359375 -8.90625 L 2.359375 -5.828125 Z M 5 -5.84375 "/></g></g></g><g fill="#e17191" fill-opacity="1"><g transform="translate(90.418059, 172.843389)"><g><path d="M 9.546875 -10.265625 L 11.0625 -10.265625 L 11.0625 0 L 9.5625 0 L 9.5625 -7.875 L 6.5625 -3.75 L 5.390625 -3.75 L 2.390625 -7.875 L 2.390625 0 L 0.875 0 L 0.875 -10.265625 L 2.390625 -10.265625 L 5.96875 -5.328125 Z M 9.546875 -10.265625 "/></g></g></g><g fill="#e17191" fill-opacity="1"><g transform="translate(102.353977, 172.843389)"><g><path d="M 1.8125 0 L 0.15625 0 L 4.421875 -10.265625 L 6.09375 -10.265625 L 10.359375 0 L 8.71875 0 L 7.375 -3.21875 L 3.140625 -3.21875 Z M 3.71875 -4.59375 L 6.796875 -4.59375 L 5.265625 -8.3125 Z M 3.71875 -4.59375 "/></g></g></g><g fill="#e17191" fill-opacity="1"><g transform="translate(112.944391, 172.843389)"><g><path d="M 0.859375 0 L 0.859375 -10.265625 L 2.375 -10.265625 L 2.375 -1.40625 L 7.125 -1.40625 L 7.125 0 Z M 0.859375 0 "/></g></g></g><g fill="#e17191" fill-opacity="1"><g transform="translate(120.366368, 172.843389)"><g><path d="M 1.8125 0 L 0.15625 0 L 4.421875 -10.265625 L 6.09375 -10.265625 L 10.359375 0 L 8.71875 0 L 7.375 -3.21875 L 3.140625 -3.21875 Z M 3.71875 -4.59375 L 6.796875 -4.59375 L 5.265625 -8.3125 Z M 3.71875 -4.59375 "/></g></g></g><g fill="#e17191" fill-opacity="1"><g transform="translate(130.956782, 172.843389)"><g/></g></g><g fill="#e17191" fill-opacity="1"><g transform="translate(134.732871, 172.843389)"><g><path d="M 4.953125 -10.265625 C 5.359375 -10.265625 5.738281 -10.1875 6.09375 -10.03125 C 6.445312 -9.875 6.753906 -9.664062 7.015625 -9.40625 C 7.285156 -9.144531 7.5 -8.835938 7.65625 -8.484375 C 7.8125 -8.128906 7.890625 -7.75 7.890625 -7.34375 C 7.890625 -6.945312 7.8125 -6.566406 7.65625 -6.203125 C 7.5 -5.847656 7.285156 -5.539062 7.015625 -5.28125 C 6.753906 -5.019531 6.445312 -4.8125 6.09375 -4.65625 C 5.738281 -4.507812 5.359375 -4.4375 4.953125 -4.4375 L 2.28125 -4.421875 L 2.28125 0 L 0.78125 0 L 0.78125 -10.265625 Z M 4.953125 -5.84375 C 5.148438 -5.84375 5.335938 -5.882812 5.515625 -5.96875 C 5.691406 -6.050781 5.847656 -6.160156 5.984375 -6.296875 C 6.117188 -6.429688 6.222656 -6.59375 6.296875 -6.78125 C 6.378906 -6.96875 6.421875 -7.164062 6.421875 -7.375 C 6.421875 -7.59375 6.378906 -7.789062 6.296875 -7.96875 C 6.222656 -8.15625 6.117188 -8.316406 5.984375 -8.453125 C 5.847656 -8.597656 5.691406 -8.707031 5.515625 -8.78125 C 5.335938 -8.863281 5.148438 -8.90625 4.953125 -8.90625 L 2.28125 -8.90625 L 2.28125 -5.84375 Z M 4.953125 -5.84375 "/></g></g></g><g fill="#e17191" fill-opacity="1"><g transform="translate(143.153122, 172.843389)"><g><path d="M 8.34375 -3.625 C 8.34375 -3.101562 8.242188 -2.613281 8.046875 -2.15625 C 7.847656 -1.695312 7.582031 -1.296875 7.25 -0.953125 C 6.914062 -0.617188 6.519531 -0.351562 6.0625 -0.15625 C 5.601562 0.0390625 5.113281 0.140625 4.59375 0.140625 C 4.070312 0.140625 3.582031 0.0390625 3.125 -0.15625 C 2.675781 -0.351562 2.285156 -0.617188 1.953125 -0.953125 C 1.617188 -1.296875 1.351562 -1.695312 1.15625 -2.15625 C 0.957031 -2.613281 0.859375 -3.101562 0.859375 -3.625 L 0.859375 -10.265625 L 2.359375 -10.265625 L 2.359375 -3.625 C 2.359375 -3.320312 2.414062 -3.03125 2.53125 -2.75 C 2.644531 -2.46875 2.800781 -2.21875 3 -2 C 3.207031 -1.78125 3.445312 -1.609375 3.71875 -1.484375 C 4 -1.359375 4.289062 -1.296875 4.59375 -1.296875 C 4.90625 -1.296875 5.195312 -1.359375 5.46875 -1.484375 C 5.738281 -1.609375 5.972656 -1.78125 6.171875 -2 C 6.378906 -2.21875 6.539062 -2.46875 6.65625 -2.75 C 6.769531 -3.03125 6.828125 -3.320312 6.828125 -3.625 L 6.828125 -10.265625 L 8.34375 -10.265625 Z M 8.34375 -3.625 "/></g></g></g><g fill="#e17191" fill-opacity="1"><g transform="translate(152.325697, 172.843389)"><g><path d="M 7.65625 -2.875 C 7.65625 -2.445312 7.566406 -2.046875 7.390625 -1.671875 C 7.222656 -1.296875 6.96875 -0.96875 6.625 -0.6875 C 5.957031 -0.132812 5.101562 0.140625 4.0625 0.140625 C 3.25 0.140625 2.515625 -0.0234375 1.859375 -0.359375 C 1.203125 -0.691406 0.722656 -1.132812 0.421875 -1.6875 L 1.703125 -2.359375 C 1.898438 -2.015625 2.207031 -1.742188 2.625 -1.546875 C 3.039062 -1.359375 3.519531 -1.265625 4.0625 -1.265625 C 5.457031 -1.265625 6.15625 -1.800781 6.15625 -2.875 C 6.15625 -3.082031 6.117188 -3.253906 6.046875 -3.390625 C 5.984375 -3.535156 5.878906 -3.675781 5.734375 -3.8125 C 5.378906 -4.09375 4.753906 -4.351562 3.859375 -4.59375 C 3.316406 -4.726562 2.859375 -4.875 2.484375 -5.03125 C 2.109375 -5.195312 1.796875 -5.390625 1.546875 -5.609375 C 0.941406 -6.109375 0.640625 -6.757812 0.640625 -7.5625 C 0.640625 -7.96875 0.71875 -8.347656 0.875 -8.703125 C 1.03125 -9.054688 1.253906 -9.363281 1.546875 -9.625 C 1.847656 -9.882812 2.195312 -10.078125 2.59375 -10.203125 C 3 -10.335938 3.441406 -10.40625 3.921875 -10.40625 C 4.628906 -10.40625 5.273438 -10.269531 5.859375 -10 C 6.453125 -9.726562 6.90625 -9.347656 7.21875 -8.859375 L 6.046875 -8.125 C 5.765625 -8.46875 5.441406 -8.707031 5.078125 -8.84375 C 4.710938 -8.988281 4.328125 -9.0625 3.921875 -9.0625 C 3.628906 -9.0625 3.363281 -9.007812 3.125 -8.90625 C 2.882812 -8.8125 2.679688 -8.695312 2.515625 -8.5625 C 2.378906 -8.445312 2.28125 -8.304688 2.21875 -8.140625 C 2.15625 -7.972656 2.125 -7.789062 2.125 -7.59375 C 2.125 -7.46875 2.144531 -7.335938 2.1875 -7.203125 C 2.226562 -7.078125 2.316406 -6.941406 2.453125 -6.796875 C 2.597656 -6.660156 2.8125 -6.523438 3.09375 -6.390625 C 3.375 -6.265625 3.753906 -6.140625 4.234375 -6.015625 C 4.816406 -5.867188 5.304688 -5.710938 5.703125 -5.546875 C 6.097656 -5.378906 6.429688 -5.179688 6.703125 -4.953125 C 7.335938 -4.429688 7.65625 -3.738281 7.65625 -2.875 Z M 7.65625 -2.875 "/></g></g></g><g fill="#e17191" fill-opacity="1"><g transform="translate(160.717016, 172.843389)"><g><path d="M 4.953125 -10.265625 C 5.359375 -10.265625 5.738281 -10.1875 6.09375 -10.03125 C 6.445312 -9.875 6.753906 -9.664062 7.015625 -9.40625 C 7.285156 -9.144531 7.5 -8.835938 7.65625 -8.484375 C 7.8125 -8.128906 7.890625 -7.75 7.890625 -7.34375 C 7.890625 -6.945312 7.8125 -6.566406 7.65625 -6.203125 C 7.5 -5.847656 7.285156 -5.539062 7.015625 -5.28125 C 6.753906 -5.019531 6.445312 -4.8125 6.09375 -4.65625 C 5.738281 -4.507812 5.359375 -4.4375 4.953125 -4.4375 L 2.28125 -4.421875 L 2.28125 0 L 0.78125 0 L 0.78125 -10.265625 Z M 4.953125 -5.84375 C 5.148438 -5.84375 5.335938 -5.882812 5.515625 -5.96875 C 5.691406 -6.050781 5.847656 -6.160156 5.984375 -6.296875 C 6.117188 -6.429688 6.222656 -6.59375 6.296875 -6.78125 C 6.378906 -6.96875 6.421875 -7.164062 6.421875 -7.375 C 6.421875 -7.59375 6.378906 -7.789062 6.296875 -7.96875 C 6.222656 -8.15625 6.117188 -8.316406 5.984375 -8.453125 C 5.847656 -8.597656 5.691406 -8.707031 5.515625 -8.78125 C 5.335938 -8.863281 5.148438 -8.90625 4.953125 -8.90625 L 2.28125 -8.90625 L 2.28125 -5.84375 Z M 4.953125 -5.84375 "/></g></g></g><g fill="#e17191" fill-opacity="1"><g transform="translate(169.137267, 172.843389)"><g><path d="M 1.8125 0 L 0.15625 0 L 4.421875 -10.265625 L 6.09375 -10.265625 L 10.359375 0 L 8.71875 0 L 7.375 -3.21875 L 3.140625 -3.21875 Z M 3.71875 -4.59375 L 6.796875 -4.59375 L 5.265625 -8.3125 Z M 3.71875 -4.59375 "/></g></g></g><g fill="#e17191" fill-opacity="1"><g transform="translate(179.727681, 172.843389)"><g/></g></g><g fill="#e17191" fill-opacity="1"><g transform="translate(183.50377, 172.843389)"><g><path d="M 9.28125 0 L 7.375 0 L 4.15625 -4.421875 L 2.359375 -4.421875 L 2.359375 0 L 0.84375 0 L 0.84375 -10.265625 L 5 -10.265625 C 5.40625 -10.265625 5.789062 -10.1875 6.15625 -10.03125 C 6.519531 -9.875 6.832031 -9.664062 7.09375 -9.40625 C 7.363281 -9.144531 7.570312 -8.835938 7.71875 -8.484375 C 7.875 -8.128906 7.953125 -7.75 7.953125 -7.34375 C 7.953125 -7.007812 7.898438 -6.691406 7.796875 -6.390625 C 7.691406 -6.097656 7.546875 -5.828125 7.359375 -5.578125 C 7.171875 -5.335938 6.945312 -5.128906 6.6875 -4.953125 C 6.425781 -4.773438 6.140625 -4.644531 5.828125 -4.5625 Z M 5 -5.84375 C 5.207031 -5.84375 5.398438 -5.882812 5.578125 -5.96875 C 5.765625 -6.050781 5.921875 -6.160156 6.046875 -6.296875 C 6.179688 -6.429688 6.285156 -6.59375 6.359375 -6.78125 C 6.441406 -6.96875 6.484375 -7.164062 6.484375 -7.375 C 6.484375 -7.59375 6.441406 -7.789062 6.359375 -7.96875 C 6.285156 -8.15625 6.179688 -8.316406 6.046875 -8.453125 C 5.921875 -8.597656 5.765625 -8.707031 5.578125 -8.78125 C 5.398438 -8.863281 5.207031 -8.90625 5 -8.90625 L 2.359375 -8.90625 L 2.359375 -5.828125 Z M 5 -5.84375 "/></g></g></g><g fill="#e17191" fill-opacity="1"><g transform="translate(192.994642, 172.843389)"><g><path d="M 0.625 -0.75 C 0.625 -1 0.707031 -1.210938 0.875 -1.390625 C 1.050781 -1.566406 1.265625 -1.65625 1.515625 -1.65625 C 1.765625 -1.65625 1.976562 -1.566406 2.15625 -1.390625 C 2.332031 -1.210938 2.421875 -1 2.421875 -0.75 C 2.421875 -0.5 2.332031 -0.285156 2.15625 -0.109375 C 1.976562 0.0546875 1.765625 0.140625 1.515625 0.140625 C 1.265625 0.140625 1.050781 0.0546875 0.875 -0.109375 C 0.707031 -0.285156 0.625 -0.5 0.625 -0.75 Z M 0.625 -0.75 "/></g></g></g><g fill="#e17191" fill-opacity="1"><g transform="translate(196.452445, 172.843389)"><g/></g></g><g fill="#e17191" fill-opacity="1"><g transform="translate(200.228533, 172.843389)"><g><path d="M 0.671875 -4.734375 L 4.921875 -4.734375 L 4.921875 -3.78125 L 0.671875 -3.78125 Z M 0.671875 -4.734375 "/></g></g></g><g fill="#e17191" fill-opacity="1"><g transform="translate(205.798634, 172.843389)"><g/></g></g><g fill="#e17191" fill-opacity="1"><g transform="translate(209.574723, 172.843389)"><g><path d="M 4.953125 -10.265625 C 5.359375 -10.265625 5.738281 -10.1875 6.09375 -10.03125 C 6.445312 -9.875 6.753906 -9.664062 7.015625 -9.40625 C 7.285156 -9.144531 7.5 -8.835938 7.65625 -8.484375 C 7.8125 -8.128906 7.890625 -7.75 7.890625 -7.34375 C 7.890625 -6.945312 7.8125 -6.566406 7.65625 -6.203125 C 7.5 -5.847656 7.285156 -5.539062 7.015625 -5.28125 C 6.753906 -5.019531 6.445312 -4.8125 6.09375 -4.65625 C 5.738281 -4.507812 5.359375 -4.4375 4.953125 -4.4375 L 2.28125 -4.421875 L 2.28125 0 L 0.78125 0 L 0.78125 -10.265625 Z M 4.953125 -5.84375 C 5.148438 -5.84375 5.335938 -5.882812 5.515625 -5.96875 C 5.691406 -6.050781 5.847656 -6.160156 5.984375 -6.296875 C 6.117188 -6.429688 6.222656 -6.59375 6.296875 -6.78125 C 6.378906 -6.96875 6.421875 -7.164062 6.421875 -7.375 C 6.421875 -7.59375 6.378906 -7.789062 6.296875 -7.96875 C 6.222656 -8.15625 6.117188 -8.316406 5.984375 -8.453125 C 5.847656 -8.597656 5.691406 -8.707031 5.515625 -8.78125 C 5.335938 -8.863281 5.148438 -8.90625 4.953125 -8.90625 L 2.28125 -8.90625 L 2.28125 -5.84375 Z M 4.953125 -5.84375 "/></g></g></g><g fill="#e17191" fill-opacity="1"><g transform="translate(217.994974, 172.843389)"><g><path d="M 9.28125 0 L 7.375 0 L 4.15625 -4.421875 L 2.359375 -4.421875 L 2.359375 0 L 0.84375 0 L 0.84375 -10.265625 L 5 -10.265625 C 5.40625 -10.265625 5.789062 -10.1875 6.15625 -10.03125 C 6.519531 -9.875 6.832031 -9.664062 7.09375 -9.40625 C 7.363281 -9.144531 7.570312 -8.835938 7.71875 -8.484375 C 7.875 -8.128906 7.953125 -7.75 7.953125 -7.34375 C 7.953125 -7.007812 7.898438 -6.691406 7.796875 -6.390625 C 7.691406 -6.097656 7.546875 -5.828125 7.359375 -5.578125 C 7.171875 -5.335938 6.945312 -5.128906 6.6875 -4.953125 C 6.425781 -4.773438 6.140625 -4.644531 5.828125 -4.5625 Z M 5 -5.84375 C 5.207031 -5.84375 5.398438 -5.882812 5.578125 -5.96875 C 5.765625 -6.050781 5.921875 -6.160156 6.046875 -6.296875 C 6.179688 -6.429688 6.285156 -6.59375 6.359375 -6.78125 C 6.441406 -6.96875 6.484375 -7.164062 6.484375 -7.375 C 6.484375 -7.59375 6.441406 -7.789062 6.359375 -7.96875 C 6.285156 -8.15625 6.179688 -8.316406 6.046875 -8.453125 C 5.921875 -8.597656 5.765625 -8.707031 5.578125 -8.78125 C 5.398438 -8.863281 5.207031 -8.90625 5 -8.90625 L 2.359375 -8.90625 L 2.359375 -5.828125 Z M 5 -5.84375 "/></g></g></g><g fill="#e17191" fill-opacity="1"><g transform="translate(227.485847, 172.843389)"><g><path d="M 5.578125 -10.40625 C 6.265625 -10.40625 6.914062 -10.265625 7.53125 -9.984375 C 8.15625 -9.703125 8.695312 -9.320312 9.15625 -8.84375 C 9.613281 -8.363281 9.976562 -7.800781 10.25 -7.15625 C 10.519531 -6.519531 10.65625 -5.847656 10.65625 -5.140625 C 10.65625 -4.410156 10.519531 -3.726562 10.25 -3.09375 C 9.976562 -2.457031 9.609375 -1.898438 9.140625 -1.421875 C 8.679688 -0.941406 8.140625 -0.5625 7.515625 -0.28125 C 6.898438 -0.0078125 6.25 0.125 5.5625 0.125 C 4.863281 0.125 4.203125 -0.0078125 3.578125 -0.28125 C 2.960938 -0.5625 2.425781 -0.941406 1.96875 -1.421875 C 1.507812 -1.898438 1.144531 -2.457031 0.875 -3.09375 C 0.613281 -3.726562 0.484375 -4.410156 0.484375 -5.140625 C 0.484375 -5.847656 0.613281 -6.519531 0.875 -7.15625 C 1.144531 -7.800781 1.507812 -8.363281 1.96875 -8.84375 C 2.4375 -9.320312 2.976562 -9.703125 3.59375 -9.984375 C 4.21875 -10.265625 4.878906 -10.40625 5.578125 -10.40625 Z M 5.578125 -1.296875 C 6.066406 -1.296875 6.523438 -1.394531 6.953125 -1.59375 C 7.378906 -1.789062 7.75 -2.0625 8.0625 -2.40625 C 8.382812 -2.757812 8.632812 -3.171875 8.8125 -3.640625 C 9 -4.109375 9.09375 -4.609375 9.09375 -5.140625 C 9.09375 -5.671875 9 -6.164062 8.8125 -6.625 C 8.632812 -7.09375 8.382812 -7.5 8.0625 -7.84375 C 7.75 -8.1875 7.378906 -8.457031 6.953125 -8.65625 C 6.523438 -8.851562 6.066406 -8.953125 5.578125 -8.953125 C 5.078125 -8.953125 4.613281 -8.851562 4.1875 -8.65625 C 3.757812 -8.457031 3.382812 -8.1875 3.0625 -7.84375 C 2.75 -7.5 2.5 -7.09375 2.3125 -6.625 C 2.125 -6.164062 2.03125 -5.671875 2.03125 -5.140625 C 2.03125 -4.609375 2.125 -4.109375 2.3125 -3.640625 C 2.5 -3.171875 2.75 -2.757812 3.0625 -2.40625 C 3.382812 -2.0625 3.757812 -1.789062 4.1875 -1.59375 C 4.613281 -1.394531 5.078125 -1.296875 5.578125 -1.296875 Z M 5.578125 -1.296875 "/></g></g></g><g fill="#e17191" fill-opacity="1"><g transform="translate(238.582633, 172.843389)"><g><path d="M 6.546875 -5.484375 L 9.328125 -5.484375 L 9.328125 -1.71875 C 8.867188 -1.164062 8.3125 -0.71875 7.65625 -0.375 C 7 -0.03125 6.285156 0.140625 5.515625 0.140625 C 4.816406 0.140625 4.160156 0.00390625 3.546875 -0.265625 C 2.929688 -0.546875 2.394531 -0.925781 1.9375 -1.40625 C 1.488281 -1.882812 1.128906 -2.441406 0.859375 -3.078125 C 0.597656 -3.710938 0.46875 -4.394531 0.46875 -5.125 C 0.46875 -5.832031 0.597656 -6.503906 0.859375 -7.140625 C 1.128906 -7.785156 1.488281 -8.347656 1.9375 -8.828125 C 2.394531 -9.304688 2.929688 -9.6875 3.546875 -9.96875 C 4.160156 -10.25 4.816406 -10.390625 5.515625 -10.390625 C 6.148438 -10.390625 6.75 -10.265625 7.3125 -10.015625 C 7.882812 -9.765625 8.398438 -9.4375 8.859375 -9.03125 L 7.953125 -7.890625 C 7.640625 -8.222656 7.269531 -8.492188 6.84375 -8.703125 C 6.425781 -8.910156 5.984375 -9.015625 5.515625 -9.015625 C 5.023438 -9.015625 4.5625 -8.910156 4.125 -8.703125 C 3.695312 -8.492188 3.320312 -8.210938 3 -7.859375 C 2.6875 -7.503906 2.4375 -7.09375 2.25 -6.625 C 2.070312 -6.15625 1.984375 -5.65625 1.984375 -5.125 C 1.984375 -4.59375 2.070312 -4.09375 2.25 -3.625 C 2.4375 -3.15625 2.6875 -2.742188 3 -2.390625 C 3.320312 -2.035156 3.695312 -1.757812 4.125 -1.5625 C 4.5625 -1.363281 5.023438 -1.265625 5.515625 -1.265625 C 5.960938 -1.265625 6.382812 -1.351562 6.78125 -1.53125 C 7.175781 -1.707031 7.53125 -1.945312 7.84375 -2.25 L 7.84375 -4.078125 L 6.546875 -4.078125 Z M 6.546875 -5.484375 "/></g></g></g><g fill="#e17191" fill-opacity="1"><g transform="translate(248.854761, 172.843389)"><g><path d="M 9.28125 0 L 7.375 0 L 4.15625 -4.421875 L 2.359375 -4.421875 L 2.359375 0 L 0.84375 0 L 0.84375 -10.265625 L 5 -10.265625 C 5.40625 -10.265625 5.789062 -10.1875 6.15625 -10.03125 C 6.519531 -9.875 6.832031 -9.664062 7.09375 -9.40625 C 7.363281 -9.144531 7.570312 -8.835938 7.71875 -8.484375 C 7.875 -8.128906 7.953125 -7.75 7.953125 -7.34375 C 7.953125 -7.007812 7.898438 -6.691406 7.796875 -6.390625 C 7.691406 -6.097656 7.546875 -5.828125 7.359375 -5.578125 C 7.171875 -5.335938 6.945312 -5.128906 6.6875 -4.953125 C 6.425781 -4.773438 6.140625 -4.644531 5.828125 -4.5625 Z M 5 -5.84375 C 5.207031 -5.84375 5.398438 -5.882812 5.578125 -5.96875 C 5.765625 -6.050781 5.921875 -6.160156 6.046875 -6.296875 C 6.179688 -6.429688 6.285156 -6.59375 6.359375 -6.78125 C 6.441406 -6.96875 6.484375 -7.164062 6.484375 -7.375 C 6.484375 -7.59375 6.441406 -7.789062 6.359375 -7.96875 C 6.285156 -8.15625 6.179688 -8.316406 6.046875 -8.453125 C 5.921875 -8.597656 5.765625 -8.707031 5.578125 -8.78125 C 5.398438 -8.863281 5.207031 -8.90625 5 -8.90625 L 2.359375 -8.90625 L 2.359375 -5.828125 Z M 5 -5.84375 "/></g></g></g><g fill="#e17191" fill-opacity="1"><g transform="translate(258.345634, 172.843389)"><g><path d="M 1.8125 0 L 0.15625 0 L 4.421875 -10.265625 L 6.09375 -10.265625 L 10.359375 0 L 8.71875 0 L 7.375 -3.21875 L 3.140625 -3.21875 Z M 3.71875 -4.59375 L 6.796875 -4.59375 L 5.265625 -8.3125 Z M 3.71875 -4.59375 "/></g></g></g><g fill="#e17191" fill-opacity="1"><g transform="translate(268.936047, 172.843389)"><g><path d="M 9.546875 -10.265625 L 11.0625 -10.265625 L 11.0625 0 L 9.5625 0 L 9.5625 -7.875 L 6.5625 -3.75 L 5.390625 -3.75 L 2.390625 -7.875 L 2.390625 0 L 0.875 0 L 0.875 -10.265625 L 2.390625 -10.265625 L 5.96875 -5.328125 Z M 9.546875 -10.265625 "/></g></g></g><g fill="#e17191" fill-opacity="1"><g transform="translate(280.871977, 172.843389)"><g><path d="M 9.546875 -10.265625 L 11.0625 -10.265625 L 11.0625 0 L 9.5625 0 L 9.5625 -7.875 L 6.5625 -3.75 L 5.390625 -3.75 L 2.390625 -7.875 L 2.390625 0 L 0.875 0 L 0.875 -10.265625 L 2.390625 -10.265625 L 5.96875 -5.328125 Z M 9.546875 -10.265625 "/></g></g></g><g fill="#e17191" fill-opacity="1"><g transform="translate(292.807906, 172.843389)"><g><path d="M 7.078125 -10.265625 L 7.078125 -8.890625 L 2.3125 -8.890625 L 2.3125 -6.109375 L 6.546875 -6.109375 L 6.546875 -4.703125 L 2.3125 -4.703125 L 2.3125 -1.40625 L 7.078125 -1.40625 L 7.078125 0 L 0.8125 0 L 0.8125 -10.265625 Z M 7.078125 -10.265625 "/></g></g></g><g fill="#e17191" fill-opacity="1"><g transform="translate(300.750716, 172.843389)"><g><path d="M 9.28125 0 L 7.375 0 L 4.15625 -4.421875 L 2.359375 -4.421875 L 2.359375 0 L 0.84375 0 L 0.84375 -10.265625 L 5 -10.265625 C 5.40625 -10.265625 5.789062 -10.1875 6.15625 -10.03125 C 6.519531 -9.875 6.832031 -9.664062 7.09375 -9.40625 C 7.363281 -9.144531 7.570312 -8.835938 7.71875 -8.484375 C 7.875 -8.128906 7.953125 -7.75 7.953125 -7.34375 C 7.953125 -7.007812 7.898438 -6.691406 7.796875 -6.390625 C 7.691406 -6.097656 7.546875 -5.828125 7.359375 -5.578125 C 7.171875 -5.335938 6.945312 -5.128906 6.6875 -4.953125 C 6.425781 -4.773438 6.140625 -4.644531 5.828125 -4.5625 Z M 5 -5.84375 C 5.207031 -5.84375 5.398438 -5.882812 5.578125 -5.96875 C 5.765625 -6.050781 5.921875 -6.160156 6.046875 -6.296875 C 6.179688 -6.429688 6.285156 -6.59375 6.359375 -6.78125 C 6.441406 -6.96875 6.484375 -7.164062 6.484375 -7.375 C 6.484375 -7.59375 6.441406 -7.789062 6.359375 -7.96875 C 6.285156 -8.15625 6.179688 -8.316406 6.046875 -8.453125 C 5.921875 -8.597656 5.765625 -8.707031 5.578125 -8.78125 C 5.398438 -8.863281 5.207031 -8.90625 5 -8.90625 L 2.359375 -8.90625 L 2.359375 -5.828125 Z M 5 -5.84375 "/></g></g></g><g clip-path="url(#ab8e81be9f)"><g clip-path="url(#0f401e61fd)"><path fill="#e17191" d="M 35.503906 40.757812 L 51.40625 40.757812 L 51.40625 56.660156 L 35.503906 56.660156 Z M 35.503906 40.757812 " fill-opacity="1" fill-rule="nonzero"/></g></g><g clip-path="url(#c31d864fc4)"><g clip-path="url(#a49ef4bdf9)"><path fill="#e17191" d="M 49.855469 27.488281 L 61.085938 27.488281 L 61.085938 38.722656 L 49.855469 38.722656 Z M 49.855469 27.488281 " fill-opacity="1" fill-rule="nonzero"/></g></g><g clip-path="url(#260de5e38a)"><g clip-path="url(#e810b89b1a)"><path fill="#e17191" d="M 338.816406 141.105469 L 350.046875 141.105469 L 350.046875 152.335938 L 338.816406 152.335938 Z M 338.816406 141.105469 " fill-opacity="1" fill-rule="nonzero"/></g></g><g clip-path="url(#13223b077d)"><g clip-path="url(#52f3bb5187)"><path fill="#e17191" d="M 323.859375 152.335938 L 339.761719 152.335938 L 339.761719 168.238281 L 323.859375 168.238281 Z M 323.859375 152.335938 " fill-opacity="1" fill-rule="nonzero"/></g></g><g clip-path="url(#bd5b9b68d3)"><g clip-path="url(#e70284e2d6)"><path fill="#e17191" d="M 316.390625 66.320312 L 329.773438 66.320312 L 329.773438 79.703125 L 316.390625 79.703125 Z M 316.390625 66.320312 " fill-opacity="1" fill-rule="nonzero"/></g></g><g clip-path="url(#0aec80756f)"><g clip-path="url(#bb9d7df6d3)"><path fill="#e17191" d="M 43.164062 153.898438 L 56.546875 153.898438 L 56.546875 167.28125 L 43.164062 167.28125 Z M 43.164062 153.898438 " fill-opacity="1" fill-rule="nonzero"/></g></g><g clip-path="url(#e14c6f693e)"><g clip-path="url(#77a74957fd)"><path fill="#f6f5f2" d="M 212.1875 184.128906 L 225.570312 184.128906 L 225.570312 197.511719 L 212.1875 197.511719 Z M 212.1875 184.128906 " fill-opacity="1" fill-rule="nonzero"/></g></g><g clip-path="url(#4bb623c005)"><g clip-path="url(#88c64c1b37)"><path fill="#e17191" d="M 174.164062 50.421875 L 190.0625 50.421875 L 190.0625 66.320312 L 174.164062 66.320312 Z M 174.164062 50.421875 " fill-opacity="1" fill-rule="nonzero"/></g></g></svg>