<svg xmlns="http://www.w3.org/2000/svg" xmlns:xlink="http://www.w3.org/1999/xlink" width="500" zoomAndPan="magnify" viewBox="0 0 375 225" height="300" preserveAspectRatio="xMidYMid meet" version="1.0"><defs><g/></defs><g fill="#32334c" fill-opacity="1"><g transform="translate(25.752499, 171.642392)"><g><path d="M 80.171875 -115.234375 L 115.71875 -115.234375 L 115.71875 -110.453125 C 111.113281 -107.378906 106.613281 -105.1875 102.21875 -103.875 L 102.21875 1.96875 L 92.84375 1.96875 L 33.09375 -88.71875 L 26.671875 -101.5625 L 26.171875 -101.5625 L 27.65625 -88.71875 L 27.65625 -10.53125 C 32.15625 -9.320312 36.378906 -7.40625 40.328125 -4.78125 L 40.328125 0 L 4.78125 0 L 4.78125 -4.78125 C 6.75 -5.976562 8.859375 -7.039062 11.109375 -7.96875 C 13.359375 -8.90625 15.742188 -9.757812 18.265625 -10.53125 L 18.265625 -104.859375 C 16.078125 -105.734375 13.910156 -106.664062 11.765625 -107.65625 C 9.628906 -108.644531 7.628906 -109.632812 5.765625 -110.625 L 5.765625 -115.234375 L 33.578125 -115.234375 L 85.4375 -37.03125 L 93 -22.875 L 93.65625 -22.875 L 92.84375 -37.03125 L 92.84375 -103.875 C 90.539062 -104.851562 88.316406 -105.890625 86.171875 -106.984375 C 84.035156 -108.085938 82.035156 -109.242188 80.171875 -110.453125 Z M 80.171875 -115.234375 "/></g></g></g><g fill="#32334c" fill-opacity="1"><g transform="translate(146.241127, 171.642392)"><g><path d="M 34.078125 -8.71875 C 37.035156 -8.394531 39.832031 -7.875 42.46875 -7.15625 C 45.101562 -6.445312 47.570312 -5.65625 49.875 -4.78125 L 49.875 0 L 4.78125 0 L 4.78125 -4.78125 C 6.96875 -5.875 9.210938 -6.691406 11.515625 -7.234375 C 13.828125 -7.785156 16.078125 -8.28125 18.265625 -8.71875 L 18.265625 -106.34375 C 15.742188 -106.78125 13.382812 -107.351562 11.1875 -108.0625 C 9 -108.78125 6.863281 -109.578125 4.78125 -110.453125 L 4.78125 -115.234375 L 19.59375 -115.234375 C 23.976562 -115.234375 28.75 -115.453125 33.90625 -115.890625 C 39.0625 -116.328125 44 -116.546875 48.71875 -116.546875 C 54.101562 -116.546875 59.375 -115.96875 64.53125 -114.8125 C 69.6875 -113.664062 74.265625 -111.71875 78.265625 -108.96875 C 82.273438 -106.226562 85.515625 -102.578125 87.984375 -98.015625 C 90.453125 -93.460938 91.6875 -87.785156 91.6875 -80.984375 C 91.6875 -74.515625 90.421875 -68.972656 87.890625 -64.359375 C 85.367188 -59.753906 81.992188 -55.96875 77.765625 -53 C 73.546875 -50.039062 68.75 -47.875 63.375 -46.5 C 58 -45.125 52.457031 -44.4375 46.75 -44.4375 C 46.195312 -44.4375 45.34375 -44.4375 44.1875 -44.4375 C 43.039062 -44.4375 41.804688 -44.460938 40.484375 -44.515625 C 39.171875 -44.578125 37.910156 -44.660156 36.703125 -44.765625 C 35.492188 -44.878906 34.617188 -44.992188 34.078125 -45.109375 Z M 45.265625 -107.984375 C 42.628906 -107.984375 40.488281 -107.925781 38.84375 -107.8125 C 37.195312 -107.707031 35.609375 -107.488281 34.078125 -107.15625 L 34.078125 -53.828125 C 34.617188 -53.609375 35.410156 -53.46875 36.453125 -53.40625 C 37.503906 -53.351562 38.601562 -53.269531 39.75 -53.15625 C 40.90625 -53.050781 42.03125 -53 43.125 -53 C 44.226562 -53 45.109375 -53 45.765625 -53 C 49.597656 -53 53.21875 -53.519531 56.625 -54.5625 C 60.03125 -55.601562 63.019531 -57.273438 65.59375 -59.578125 C 68.175781 -61.890625 70.234375 -64.800781 71.765625 -68.3125 C 73.304688 -71.820312 74.078125 -76.046875 74.078125 -80.984375 C 74.078125 -89.984375 71.523438 -96.734375 66.421875 -101.234375 C 61.316406 -105.734375 54.265625 -107.984375 45.265625 -107.984375 Z M 45.265625 -107.984375 "/></g></g></g><g fill="#32334c" fill-opacity="1"><g transform="translate(244.343904, 171.642392)"><g><path d="M 34.078125 -8.71875 C 36.597656 -8.175781 39.007812 -7.601562 41.3125 -7 C 43.625 -6.394531 45.875 -5.65625 48.0625 -4.78125 L 48.0625 0 L 4.78125 0 L 4.78125 -4.78125 C 7.1875 -5.875 9.488281 -6.691406 11.6875 -7.234375 C 13.882812 -7.785156 16.078125 -8.28125 18.265625 -8.71875 L 18.265625 -106.34375 C 15.410156 -106.882812 12.882812 -107.507812 10.6875 -108.21875 C 8.5 -108.9375 6.53125 -109.679688 4.78125 -110.453125 L 4.78125 -115.234375 L 19.265625 -115.234375 C 23.648438 -115.234375 28.445312 -115.453125 33.65625 -115.890625 C 38.875 -116.328125 43.953125 -116.546875 48.890625 -116.546875 C 54.265625 -116.546875 59.285156 -115.941406 63.953125 -114.734375 C 68.617188 -113.523438 72.648438 -111.601562 76.046875 -108.96875 C 79.453125 -106.332031 82.113281 -102.984375 84.03125 -98.921875 C 85.945312 -94.867188 86.90625 -89.988281 86.90625 -84.28125 C 86.90625 -76.269531 84.789062 -69.628906 80.5625 -64.359375 C 76.34375 -59.097656 70.613281 -55.3125 63.375 -53 C 68.09375 -45.539062 73.03125 -38.132812 78.1875 -30.78125 C 83.34375 -23.425781 88.722656 -16.128906 94.328125 -8.890625 L 103.203125 -4.109375 L 103.203125 0 L 83.296875 0 L 77.03125 -4.609375 C 73.957031 -8.453125 71.160156 -12.210938 68.640625 -15.890625 C 66.117188 -19.566406 63.757812 -23.296875 61.5625 -27.078125 C 59.363281 -30.859375 57.304688 -34.695312 55.390625 -38.59375 C 53.472656 -42.488281 51.523438 -46.632812 49.546875 -51.03125 L 34.078125 -51.03125 Z M 45.265625 -107.984375 C 42.628906 -107.984375 40.460938 -107.925781 38.765625 -107.8125 C 37.066406 -107.707031 35.503906 -107.488281 34.078125 -107.15625 L 34.078125 -57.9375 L 45.921875 -57.9375 C 53.492188 -57.9375 59.503906 -60.347656 63.953125 -65.171875 C 68.398438 -70.003906 70.625 -76.375 70.625 -84.28125 C 70.625 -92.40625 68.265625 -98.382812 63.546875 -102.21875 C 58.828125 -106.0625 52.734375 -107.984375 45.265625 -107.984375 Z M 45.265625 -107.984375 "/></g></g></g><g fill="#ffffff" fill-opacity="1"><g transform="translate(71.132805, 131.363954)"><g><path d="M 72.265625 17.59375 C 71.539062 17.226562 70.734375 17.519531 70.371094 18.25 C 70.152344 18.6875 69.929688 19.125 69.710938 19.492188 C 69.785156 15.039062 71.246094 4.816406 72.558594 -3.648438 C 74.53125 -17.375 76.792969 -32.921875 76.574219 -41.972656 C 76.355469 -51.171875 73.070312 -53.507812 70.371094 -53.871094 C 59.566406 -55.257812 39.054688 -24.820312 22.628906 27.375 C 27.59375 2.261719 38.175781 -44.894531 41.609375 -58.980469 C 43.359375 -66.5 42.996094 -70.953125 40.367188 -72.632812 C 38.03125 -74.09375 34.527344 -73.070312 29.855469 -69.421875 C 22.996094 -64.09375 14.527344 -53.871094 8.320312 -43.433594 C 4.085938 -36.28125 -2.554688 -22.921875 0.363281 -14.234375 C 2.410156 -8.03125 8.539062 -6.644531 13.359375 -6.570312 C 14.160156 -6.570312 14.746094 -7.152344 14.820312 -7.957031 C 14.820312 -8.6875 14.160156 -9.34375 13.429688 -9.34375 C 7.664062 -9.488281 4.308594 -11.316406 2.992188 -15.109375 C -1.09375 -27.375 17.8125 -56.5 31.609375 -67.230469 C 35.550781 -70.296875 37.957031 -70.808594 38.835938 -70.222656 C 39.34375 -69.929688 40.878906 -68.179688 38.835938 -59.640625 C 37.082031 -52.414062 31.242188 -26.71875 26.207031 -3.359375 C 23.214844 10.292969 20.949219 21.097656 19.417969 28.980469 C 18.542969 33.503906 17.957031 37.007812 17.59375 39.417969 C 17.007812 42.996094 16.863281 44.601562 18.324219 45.039062 C 18.46875 45.113281 18.6875 45.113281 18.832031 45.113281 C 20 45.113281 20.585938 43.507812 21.242188 41.902344 C 21.242188 41.828125 21.242188 41.828125 21.242188 41.753906 C 31.316406 6.058594 41.902344 -16.207031 49.128906 -28.613281 C 59.054688 -45.914062 66.574219 -51.535156 70.003906 -51.097656 C 73.144531 -50.734375 73.726562 -45.183594 73.800781 -41.902344 C 74.019531 -33.066406 71.757812 -17.664062 69.710938 -4.085938 C 66.355469 19.34375 66.136719 22.996094 68.472656 23.722656 C 70.152344 24.234375 71.320312 22.554688 72.851562 19.492188 C 73.214844 18.832031 72.925781 17.957031 72.265625 17.59375 Z M 72.265625 17.59375 "/></g></g></g><g fill="#ffffff" fill-opacity="1"><g transform="translate(152.815482, 131.363954)"><g><path d="M 21.316406 -16.570312 C 20.660156 -17.007812 19.855469 -16.789062 19.417969 -16.132812 C 14.527344 -8.25 6.351562 -0.804688 3.867188 -1.824219 C 3.578125 -1.972656 1.242188 -3.359375 4.453125 -15.695312 C 4.597656 -16.496094 4.160156 -17.226562 3.429688 -17.445312 C 2.628906 -17.59375 1.898438 -17.15625 1.679688 -16.425781 C -0.949219 -6.132812 -0.582031 -0.65625 2.699219 0.730469 C 3.210938 0.949219 3.722656 1.023438 4.234375 1.023438 C 9.707031 1.023438 18.101562 -8.757812 21.828125 -14.671875 C 22.191406 -15.328125 21.972656 -16.207031 21.316406 -16.570312 Z M 4.085938 -22.484375 C 7.8125 -22.265625 7.738281 -26.9375 4.746094 -25.914062 C 3.210938 -25.476562 1.242188 -22.628906 4.085938 -22.484375 Z M 4.085938 -22.484375 "/></g></g></g><g fill="#ffffff" fill-opacity="1"><g transform="translate(171.28351, 131.363954)"><g><path d="M 32.046875 -16.496094 C 31.316406 -16.863281 30.441406 -16.570312 30.148438 -15.839844 C 21.753906 1.824219 13.796875 10.875 12.042969 10.585938 C 11.898438 10.511719 9.34375 8.03125 17.59375 -17.300781 C 17.8125 -17.957031 18.324219 -19.492188 17.15625 -20.292969 C 16.058594 -21.167969 14.820312 -20.367188 12.773438 -18.980469 C 10.585938 -17.59375 7.589844 -15.621094 5.253906 -15.914062 C 12.703125 -28.761719 11.972656 -31.609375 10.292969 -32.703125 C 7.664062 -34.234375 3.867188 -29.78125 2.117188 -27.226562 C -1.460938 -21.679688 -1.386719 -16.644531 2.410156 -14.089844 C 6.277344 -11.386719 11.316406 -14.671875 14.308594 -16.644531 C 14.378906 -16.714844 14.378906 -16.714844 14.453125 -16.789062 C 11.605469 -7.8125 9.78125 -0.730469 9.125 4.160156 C 8.320312 9.5625 8.90625 12.410156 10.949219 13.210938 C 11.316406 13.285156 11.605469 13.359375 11.972656 13.359375 C 17.8125 13.359375 27.957031 -4.597656 32.703125 -14.597656 C 32.996094 -15.328125 32.703125 -16.207031 32.046875 -16.496094 Z M 2.554688 -21.535156 C 3.578125 -25.476562 7.007812 -29.125 8.539062 -30.003906 C 8.394531 -28.835938 7.589844 -25.550781 2.917969 -17.445312 C 2.410156 -18.25 2.042969 -19.492188 2.554688 -21.535156 Z M 2.554688 -21.535156 "/></g></g></g><g fill="#ffffff" fill-opacity="1"><g transform="translate(200.408972, 131.363954)"><g><path d="M 41.171875 -16.277344 C 40.585938 -16.789062 39.636719 -16.714844 39.125 -16.132812 C 33.285156 -9.269531 29.34375 -7.519531 27.59375 -8.175781 C 26.058594 -8.757812 25.183594 -11.679688 25.257812 -16.277344 C 25.257812 -17.082031 25.332031 -19.050781 23.722656 -19.417969 C 21.898438 -19.855469 20.585938 -17.738281 16.714844 -9.636719 C 16.058594 -8.25 15.476562 -7.007812 15.109375 -6.277344 C 14.671875 -5.476562 14.378906 -5.035156 14.160156 -4.816406 C 13.796875 -5.546875 13.285156 -7.445312 13.359375 -10.292969 C 13.359375 -11.753906 13.359375 -12.992188 13.429688 -14.015625 C 13.503906 -17.226562 13.578125 -18.394531 12.261719 -18.90625 C 11.09375 -19.269531 10.292969 -18.175781 10.074219 -17.8125 C 6.863281 -13.429688 4.015625 -8.980469 1.023438 -3.578125 C 2.191406 -8.613281 4.308594 -15.839844 7.007812 -21.898438 C 7.300781 -22.628906 7.007812 -23.503906 6.277344 -23.796875 C 5.546875 -24.089844 4.746094 -23.796875 4.378906 -23.066406 C 2.335938 -18.324219 0.292969 -12.261719 -1.242188 -6.277344 C -3.648438 3.359375 -2.699219 3.796875 -1.824219 4.234375 C -1.605469 4.308594 -1.386719 4.378906 -1.167969 4.378906 C -0.4375 4.378906 0.21875 3.867188 0.804688 2.773438 C 4.308594 -3.941406 7.226562 -8.90625 10.585938 -13.796875 C 10.585938 -12.773438 10.511719 -11.605469 10.511719 -10.292969 C 10.511719 -8.03125 10.804688 -2.628906 13.503906 -1.898438 C 15.695312 -1.386719 17.082031 -4.085938 17.59375 -4.964844 C 18.03125 -5.765625 18.613281 -7.007812 19.269531 -8.394531 C 20.074219 -10.074219 21.386719 -12.847656 22.484375 -14.746094 C 22.628906 -9.636719 24.015625 -6.496094 26.644531 -5.546875 C 30.222656 -4.160156 35.113281 -7.152344 41.316406 -14.308594 C 41.828125 -14.890625 41.753906 -15.765625 41.171875 -16.277344 Z M 41.171875 -16.277344 "/></g></g></g><g fill="#ffffff" fill-opacity="1"><g transform="translate(238.439963, 131.363954)"><g><path d="M 30.511719 -16.207031 C 29.855469 -16.496094 28.980469 -16.207031 28.6875 -15.546875 C 23.140625 -4.234375 18.980469 -0.65625 17.007812 -1.023438 C 16.207031 -1.167969 13.578125 -2.699219 12.921875 -15.476562 C 12.921875 -16.058594 12.484375 -16.570312 11.972656 -16.714844 C 11.386719 -16.863281 10.730469 -16.714844 10.4375 -16.207031 C 10 -15.695312 9.5625 -15.109375 9.125 -14.453125 C 7.300781 -11.972656 4.890625 -8.613281 1.972656 -5.476562 C 1.53125 -4.964844 1.167969 -4.671875 0.949219 -4.527344 C 0.4375 -7.082031 3.140625 -16.863281 7.445312 -19.929688 C 8.6875 -20.804688 10.367188 -21.460938 12.628906 -18.832031 C 13.140625 -18.25 14.015625 -18.175781 14.597656 -18.6875 C 15.183594 -19.125 15.257812 -20.074219 14.820312 -20.660156 C 12.042969 -23.871094 9.417969 -23.796875 7.664062 -23.214844 C 2.042969 -21.242188 -1.75 -10.4375 -1.898438 -5.476562 C -1.972656 -3.429688 -1.386719 -2.117188 -0.21875 -1.679688 C 1.605469 -0.949219 3.429688 -2.917969 4.015625 -3.578125 C 6.496094 -6.277344 8.757812 -9.199219 10.367188 -11.460938 C 11.167969 -3.140625 13.140625 1.023438 16.425781 1.75 C 16.714844 1.75 17.007812 1.824219 17.300781 1.824219 C 22.265625 1.824219 27.59375 -6.863281 31.171875 -14.308594 C 31.535156 -15.039062 31.242188 -15.839844 30.511719 -16.207031 Z M 30.511719 -16.207031 "/></g></g></g><g fill="#ffffff" fill-opacity="1"><g transform="translate(265.594524, 131.363954)"><g><path d="M 21.460938 -68.398438 C 20.949219 -69.054688 20.21875 -69.347656 19.492188 -69.273438 C 15.328125 -68.542969 10.875 -52.996094 9.636719 -48.25 C 5.984375 -34.308594 1.386719 -14.527344 -2.335938 3.210938 C -4.085938 11.605469 -5.476562 18.6875 -6.351562 23.796875 C -7.8125 32.410156 -7.589844 33.503906 -6.203125 33.871094 C -6.058594 33.945312 -5.914062 33.945312 -5.765625 33.945312 C -4.453125 33.945312 -3.796875 32.191406 -3.140625 30.292969 C -2.917969 29.5625 -3.285156 28.761719 -4.015625 28.542969 C -4.085938 28.46875 -4.160156 28.46875 -4.234375 28.46875 C -2.699219 17.957031 3.578125 -12.628906 10 -38.25 C 10 -38.324219 10.074219 -38.398438 10.148438 -38.46875 C 19.636719 -53.507812 23.359375 -65.480469 21.460938 -68.398438 Z M 12.484375 -48.105469 C 15.257812 -58.398438 17.738281 -63.363281 19.050781 -65.40625 C 18.761719 -62.703125 17.15625 -56.863281 12.484375 -48.105469 Z M 12.484375 -48.105469 "/></g></g></g><g fill="#ffffff" fill-opacity="1"><g transform="translate(276.689936, 131.363954)"><g><path d="M 30.511719 -16.207031 C 29.855469 -16.496094 28.980469 -16.207031 28.6875 -15.546875 C 23.140625 -4.234375 18.980469 -0.65625 17.007812 -1.023438 C 16.207031 -1.167969 13.578125 -2.699219 12.921875 -15.476562 C 12.921875 -16.058594 12.484375 -16.570312 11.972656 -16.714844 C 11.386719 -16.863281 10.730469 -16.714844 10.4375 -16.207031 C 10 -15.695312 9.5625 -15.109375 9.125 -14.453125 C 7.300781 -11.972656 4.890625 -8.613281 1.972656 -5.476562 C 1.53125 -4.964844 1.167969 -4.671875 0.949219 -4.527344 C 0.4375 -7.082031 3.140625 -16.863281 7.445312 -19.929688 C 8.6875 -20.804688 10.367188 -21.460938 12.628906 -18.832031 C 13.140625 -18.25 14.015625 -18.175781 14.597656 -18.6875 C 15.183594 -19.125 15.257812 -20.074219 14.820312 -20.660156 C 12.042969 -23.871094 9.417969 -23.796875 7.664062 -23.214844 C 2.042969 -21.242188 -1.75 -10.4375 -1.898438 -5.476562 C -1.972656 -3.429688 -1.386719 -2.117188 -0.21875 -1.679688 C 1.605469 -0.949219 3.429688 -2.917969 4.015625 -3.578125 C 6.496094 -6.277344 8.757812 -9.199219 10.367188 -11.460938 C 11.167969 -3.140625 13.140625 1.023438 16.425781 1.75 C 16.714844 1.75 17.007812 1.824219 17.300781 1.824219 C 22.265625 1.824219 27.59375 -6.863281 31.171875 -14.308594 C 31.535156 -15.039062 31.242188 -15.839844 30.511719 -16.207031 Z M 30.511719 -16.207031 "/></g></g></g></svg>