<svg xmlns="http://www.w3.org/2000/svg" xmlns:xlink="http://www.w3.org/1999/xlink" width="500" zoomAndPan="magnify" viewBox="0 0 375 225" height="300" preserveAspectRatio="xMidYMid meet" version="1.0"><defs><g/></defs><g fill="#fad8d0" fill-opacity="1"><g transform="translate(25.752499, 171.642392)"><g><path d="M 80.171875 -115.234375 L 115.71875 -115.234375 L 115.71875 -110.453125 C 111.113281 -107.378906 106.613281 -105.1875 102.21875 -103.875 L 102.21875 1.96875 L 92.84375 1.96875 L 33.09375 -88.71875 L 26.671875 -101.5625 L 26.171875 -101.5625 L 27.65625 -88.71875 L 27.65625 -10.53125 C 32.15625 -9.320312 36.378906 -7.40625 40.328125 -4.78125 L 40.328125 0 L 4.78125 0 L 4.78125 -4.78125 C 6.75 -5.976562 8.859375 -7.039062 11.109375 -7.96875 C 13.359375 -8.90625 15.742188 -9.757812 18.265625 -10.53125 L 18.265625 -104.859375 C 16.078125 -105.734375 13.910156 -106.664062 11.765625 -107.65625 C 9.628906 -108.644531 7.628906 -109.632812 5.765625 -110.625 L 5.765625 -115.234375 L 33.578125 -115.234375 L 85.4375 -37.03125 L 93 -22.875 L 93.65625 -22.875 L 92.84375 -37.03125 L 92.84375 -103.875 C 90.539062 -104.851562 88.316406 -105.890625 86.171875 -106.984375 C 84.035156 -108.085938 82.035156 -109.242188 80.171875 -110.453125 Z M 80.171875 -115.234375 "/></g></g></g><g fill="#fad8d0" fill-opacity="1"><g transform="translate(146.241127, 171.642392)"><g><path d="M 34.078125 -8.71875 C 37.035156 -8.394531 39.832031 -7.875 42.46875 -7.15625 C 45.101562 -6.445312 47.570312 -5.65625 49.875 -4.78125 L 49.875 0 L 4.78125 0 L 4.78125 -4.78125 C 6.96875 -5.875 9.210938 -6.691406 11.515625 -7.234375 C 13.828125 -7.785156 16.078125 -8.28125 18.265625 -8.71875 L 18.265625 -106.34375 C 15.742188 -106.78125 13.382812 -107.351562 11.1875 -108.0625 C 9 -108.78125 6.863281 -109.578125 4.78125 -110.453125 L 4.78125 -115.234375 L 19.59375 -115.234375 C 23.976562 -115.234375 28.75 -115.453125 33.90625 -115.890625 C 39.0625 -116.328125 44 -116.546875 48.71875 -116.546875 C 54.101562 -116.546875 59.375 -115.96875 64.53125 -114.8125 C 69.6875 -113.664062 74.265625 -111.71875 78.265625 -108.96875 C 82.273438 -106.226562 85.515625 -102.578125 87.984375 -98.015625 C 90.453125 -93.460938 91.6875 -87.785156 91.6875 -80.984375 C 91.6875 -74.515625 90.421875 -68.972656 87.890625 -64.359375 C 85.367188 -59.753906 81.992188 -55.96875 77.765625 -53 C 73.546875 -50.039062 68.75 -47.875 63.375 -46.5 C 58 -45.125 52.457031 -44.4375 46.75 -44.4375 C 46.195312 -44.4375 45.34375 -44.4375 44.1875 -44.4375 C 43.039062 -44.4375 41.804688 -44.460938 40.484375 -44.515625 C 39.171875 -44.578125 37.910156 -44.660156 36.703125 -44.765625 C 35.492188 -44.878906 34.617188 -44.992188 34.078125 -45.109375 Z M 45.265625 -107.984375 C 42.628906 -107.984375 40.488281 -107.925781 38.84375 -107.8125 C 37.195312 -107.707031 35.609375 -107.488281 34.078125 -107.15625 L 34.078125 -53.828125 C 34.617188 -53.609375 35.410156 -53.46875 36.453125 -53.40625 C 37.503906 -53.351562 38.601562 -53.269531 39.75 -53.15625 C 40.90625 -53.050781 42.03125 -53 43.125 -53 C 44.226562 -53 45.109375 -53 45.765625 -53 C 49.597656 -53 53.21875 -53.519531 56.625 -54.5625 C 60.03125 -55.601562 63.019531 -57.273438 65.59375 -59.578125 C 68.175781 -61.890625 70.234375 -64.800781 71.765625 -68.3125 C 73.304688 -71.820312 74.078125 -76.046875 74.078125 -80.984375 C 74.078125 -89.984375 71.523438 -96.734375 66.421875 -101.234375 C 61.316406 -105.734375 54.265625 -107.984375 45.265625 -107.984375 Z M 45.265625 -107.984375 "/></g></g></g><g fill="#fad8d0" fill-opacity="1"><g transform="translate(244.343904, 171.642392)"><g><path d="M 34.078125 -8.71875 C 36.597656 -8.175781 39.007812 -7.601562 41.3125 -7 C 43.625 -6.394531 45.875 -5.65625 48.0625 -4.78125 L 48.0625 0 L 4.78125 0 L 4.78125 -4.78125 C 7.1875 -5.875 9.488281 -6.691406 11.6875 -7.234375 C 13.882812 -7.785156 16.078125 -8.28125 18.265625 -8.71875 L 18.265625 -106.34375 C 15.410156 -106.882812 12.882812 -107.507812 10.6875 -108.21875 C 8.5 -108.9375 6.53125 -109.679688 4.78125 -110.453125 L 4.78125 -115.234375 L 19.265625 -115.234375 C 23.648438 -115.234375 28.445312 -115.453125 33.65625 -115.890625 C 38.875 -116.328125 43.953125 -116.546875 48.890625 -116.546875 C 54.265625 -116.546875 59.285156 -115.941406 63.953125 -114.734375 C 68.617188 -113.523438 72.648438 -111.601562 76.046875 -108.96875 C 79.453125 -106.332031 82.113281 -102.984375 84.03125 -98.921875 C 85.945312 -94.867188 86.90625 -89.988281 86.90625 -84.28125 C 86.90625 -76.269531 84.789062 -69.628906 80.5625 -64.359375 C 76.34375 -59.097656 70.613281 -55.3125 63.375 -53 C 68.09375 -45.539062 73.03125 -38.132812 78.1875 -30.78125 C 83.34375 -23.425781 88.722656 -16.128906 94.328125 -8.890625 L 103.203125 -4.109375 L 103.203125 0 L 83.296875 0 L 77.03125 -4.609375 C 73.957031 -8.453125 71.160156 -12.210938 68.640625 -15.890625 C 66.117188 -19.566406 63.757812 -23.296875 61.5625 -27.078125 C 59.363281 -30.859375 57.304688 -34.695312 55.390625 -38.59375 C 53.472656 -42.488281 51.523438 -46.632812 49.546875 -51.03125 L 34.078125 -51.03125 Z M 45.265625 -107.984375 C 42.628906 -107.984375 40.460938 -107.925781 38.765625 -107.8125 C 37.066406 -107.707031 35.503906 -107.488281 34.078125 -107.15625 L 34.078125 -57.9375 L 45.921875 -57.9375 C 53.492188 -57.9375 59.503906 -60.347656 63.953125 -65.171875 C 68.398438 -70.003906 70.625 -76.375 70.625 -84.28125 C 70.625 -92.40625 68.265625 -98.382812 63.546875 -102.21875 C 58.828125 -106.0625 52.734375 -107.984375 45.265625 -107.984375 Z M 45.265625 -107.984375 "/></g></g></g><g fill="#000000" fill-opacity="1"><g transform="translate(71.077594, 124.741113)"><g><path d="M 72.273438 17.59375 C 71.542969 17.230469 70.738281 17.519531 70.375 18.25 C 70.15625 18.6875 69.9375 19.125 69.71875 19.492188 C 69.789062 15.039062 71.25 4.816406 72.5625 -3.648438 C 74.535156 -17.375 76.796875 -32.925781 76.578125 -41.976562 C 76.359375 -51.175781 73.074219 -53.511719 70.375 -53.875 C 59.570312 -55.261719 39.054688 -24.820312 22.628906 27.375 C 27.59375 2.261719 38.179688 -44.898438 41.613281 -58.984375 C 43.363281 -66.503906 43 -70.957031 40.371094 -72.636719 C 38.035156 -74.097656 34.53125 -73.074219 29.859375 -69.425781 C 22.996094 -64.097656 14.527344 -53.875 8.324219 -43.4375 C 4.089844 -36.28125 -2.554688 -22.921875 0.363281 -14.234375 C 2.410156 -8.03125 8.542969 -6.644531 13.359375 -6.570312 C 14.164062 -6.570312 14.746094 -7.152344 14.820312 -7.957031 C 14.820312 -8.6875 14.164062 -9.34375 13.433594 -9.34375 C 7.664062 -9.492188 4.308594 -11.316406 2.992188 -15.113281 C -1.09375 -27.375 17.8125 -56.503906 31.609375 -67.234375 C 35.550781 -70.300781 37.960938 -70.8125 38.835938 -70.226562 C 39.347656 -69.9375 40.882812 -68.183594 38.835938 -59.644531 C 37.085938 -52.414062 31.246094 -26.71875 26.207031 -3.359375 C 23.214844 10.292969 20.953125 21.097656 19.417969 28.980469 C 18.542969 33.507812 17.957031 37.011719 17.59375 39.421875 C 17.007812 43 16.863281 44.605469 18.324219 45.042969 C 18.46875 45.117188 18.6875 45.117188 18.835938 45.117188 C 20.003906 45.117188 20.585938 43.507812 21.242188 41.902344 C 21.242188 41.832031 21.242188 41.832031 21.242188 41.757812 C 31.316406 6.058594 41.902344 -16.207031 49.128906 -28.617188 C 59.058594 -45.917969 66.578125 -51.539062 70.007812 -51.101562 C 73.148438 -50.738281 73.734375 -45.1875 73.804688 -41.902344 C 74.023438 -33.070312 71.761719 -17.667969 69.71875 -4.089844 C 66.359375 19.34375 66.140625 22.996094 68.476562 23.726562 C 70.15625 24.238281 71.324219 22.558594 72.855469 19.492188 C 73.222656 18.835938 72.929688 17.957031 72.273438 17.59375 Z M 72.273438 17.59375 "/></g></g></g><g fill="#000000" fill-opacity="1"><g transform="translate(152.767519, 124.741113)"><g><path d="M 21.316406 -16.570312 C 20.660156 -17.007812 19.855469 -16.789062 19.417969 -16.132812 C 14.527344 -8.25 6.351562 -0.804688 3.867188 -1.824219 C 3.578125 -1.972656 1.242188 -3.359375 4.453125 -15.695312 C 4.597656 -16.5 4.160156 -17.230469 3.429688 -17.449219 C 2.628906 -17.59375 1.898438 -17.15625 1.679688 -16.425781 C -0.949219 -6.132812 -0.585938 -0.65625 2.699219 0.730469 C 3.210938 0.949219 3.722656 1.023438 4.234375 1.023438 C 9.710938 1.023438 18.105469 -8.761719 21.828125 -14.671875 C 22.191406 -15.332031 21.972656 -16.207031 21.316406 -16.570312 Z M 4.089844 -22.484375 C 7.8125 -22.265625 7.738281 -26.9375 4.746094 -25.914062 C 3.210938 -25.476562 1.242188 -22.628906 4.089844 -22.484375 Z M 4.089844 -22.484375 "/></g></g></g><g fill="#000000" fill-opacity="1"><g transform="translate(171.237162, 124.741113)"><g><path d="M 32.046875 -16.5 C 31.316406 -16.863281 30.441406 -16.570312 30.148438 -15.839844 C 21.753906 1.824219 13.796875 10.878906 12.046875 10.585938 C 11.898438 10.511719 9.34375 8.03125 17.59375 -17.300781 C 17.8125 -17.957031 18.324219 -19.492188 17.15625 -20.292969 C 16.058594 -21.171875 14.820312 -20.367188 12.777344 -18.980469 C 10.585938 -17.59375 7.59375 -15.621094 5.257812 -15.914062 C 12.703125 -28.761719 11.972656 -31.609375 10.292969 -32.707031 C 7.664062 -34.238281 3.867188 -29.785156 2.117188 -27.230469 C -1.460938 -21.683594 -1.386719 -16.644531 2.410156 -14.089844 C 6.277344 -11.386719 11.316406 -14.671875 14.308594 -16.644531 C 14.382812 -16.71875 14.382812 -16.71875 14.453125 -16.789062 C 11.605469 -7.8125 9.78125 -0.730469 9.125 4.160156 C 8.324219 9.5625 8.90625 12.410156 10.949219 13.214844 C 11.316406 13.285156 11.605469 13.359375 11.972656 13.359375 C 17.8125 13.359375 27.960938 -4.597656 32.707031 -14.601562 C 32.996094 -15.332031 32.707031 -16.207031 32.046875 -16.5 Z M 2.554688 -21.535156 C 3.578125 -25.476562 7.007812 -29.128906 8.542969 -30.003906 C 8.394531 -28.835938 7.59375 -25.550781 2.921875 -17.449219 C 2.410156 -18.25 2.042969 -19.492188 2.554688 -21.535156 Z M 2.554688 -21.535156 "/></g></g></g><g fill="#000000" fill-opacity="1"><g transform="translate(200.365226, 124.741113)"><g><path d="M 41.171875 -16.28125 C 40.589844 -16.789062 39.640625 -16.71875 39.128906 -16.132812 C 33.289062 -9.269531 29.347656 -7.519531 27.59375 -8.175781 C 26.0625 -8.761719 25.1875 -11.679688 25.257812 -16.28125 C 25.257812 -17.082031 25.332031 -19.054688 23.726562 -19.417969 C 21.902344 -19.855469 20.585938 -17.738281 16.71875 -9.636719 C 16.058594 -8.25 15.476562 -7.007812 15.113281 -6.277344 C 14.671875 -5.476562 14.382812 -5.039062 14.164062 -4.816406 C 13.796875 -5.546875 13.285156 -7.445312 13.359375 -10.292969 C 13.359375 -11.753906 13.359375 -12.996094 13.433594 -14.015625 C 13.503906 -17.230469 13.578125 -18.398438 12.265625 -18.90625 C 11.097656 -19.273438 10.292969 -18.175781 10.074219 -17.8125 C 6.863281 -13.433594 4.015625 -8.980469 1.023438 -3.578125 C 2.191406 -8.613281 4.308594 -15.839844 7.007812 -21.902344 C 7.300781 -22.628906 7.007812 -23.507812 6.277344 -23.796875 C 5.546875 -24.089844 4.746094 -23.796875 4.378906 -23.070312 C 2.335938 -18.324219 0.292969 -12.265625 -1.242188 -6.277344 C -3.648438 3.359375 -2.699219 3.796875 -1.824219 4.234375 C -1.605469 4.308594 -1.386719 4.378906 -1.167969 4.378906 C -0.4375 4.378906 0.21875 3.867188 0.804688 2.773438 C 4.308594 -3.941406 7.226562 -8.90625 10.585938 -13.796875 C 10.585938 -12.777344 10.511719 -11.605469 10.511719 -10.292969 C 10.511719 -8.03125 10.804688 -2.628906 13.503906 -1.898438 C 15.695312 -1.386719 17.082031 -4.089844 17.59375 -4.964844 C 18.03125 -5.765625 18.617188 -7.007812 19.273438 -8.394531 C 20.074219 -10.074219 21.390625 -12.847656 22.484375 -14.746094 C 22.628906 -9.636719 24.019531 -6.496094 26.644531 -5.546875 C 30.222656 -4.160156 35.113281 -7.152344 41.320312 -14.308594 C 41.832031 -14.890625 41.757812 -15.769531 41.171875 -16.28125 Z M 41.171875 -16.28125 "/></g></g></g><g fill="#000000" fill-opacity="1"><g transform="translate(238.399573, 124.741113)"><g><path d="M 30.515625 -16.207031 C 29.859375 -16.5 28.980469 -16.207031 28.691406 -15.550781 C 23.140625 -4.234375 18.980469 -0.65625 17.007812 -1.023438 C 16.207031 -1.167969 13.578125 -2.699219 12.921875 -15.476562 C 12.921875 -16.058594 12.484375 -16.570312 11.972656 -16.71875 C 11.386719 -16.863281 10.730469 -16.71875 10.4375 -16.207031 C 10 -15.695312 9.5625 -15.113281 9.125 -14.453125 C 7.300781 -11.972656 4.890625 -8.613281 1.972656 -5.476562 C 1.53125 -4.964844 1.167969 -4.671875 0.949219 -4.527344 C 0.4375 -7.082031 3.140625 -16.863281 7.445312 -19.929688 C 8.6875 -20.804688 10.367188 -21.460938 12.628906 -18.835938 C 13.140625 -18.25 14.015625 -18.175781 14.601562 -18.6875 C 15.183594 -19.125 15.257812 -20.074219 14.820312 -20.660156 C 12.046875 -23.871094 9.417969 -23.796875 7.664062 -23.214844 C 2.042969 -21.242188 -1.753906 -10.4375 -1.898438 -5.476562 C -1.972656 -3.429688 -1.386719 -2.117188 -0.21875 -1.679688 C 1.605469 -0.949219 3.429688 -2.921875 4.015625 -3.578125 C 6.496094 -6.277344 8.761719 -9.199219 10.367188 -11.460938 C 11.167969 -3.140625 13.140625 1.023438 16.425781 1.753906 C 16.71875 1.753906 17.007812 1.824219 17.300781 1.824219 C 22.265625 1.824219 27.59375 -6.863281 31.171875 -14.308594 C 31.535156 -15.039062 31.246094 -15.839844 30.515625 -16.207031 Z M 30.515625 -16.207031 "/></g></g></g><g fill="#000000" fill-opacity="1"><g transform="translate(265.55654, 124.741113)"><g><path d="M 21.460938 -68.402344 C 20.953125 -69.058594 20.222656 -69.351562 19.492188 -69.28125 C 15.332031 -68.550781 10.878906 -53 9.636719 -48.253906 C 5.984375 -34.3125 1.386719 -14.527344 -2.335938 3.210938 C -4.089844 11.605469 -5.476562 18.6875 -6.351562 23.796875 C -7.8125 32.414062 -7.59375 33.507812 -6.207031 33.875 C -6.058594 33.945312 -5.914062 33.945312 -5.765625 33.945312 C -4.453125 33.945312 -3.796875 32.195312 -3.140625 30.296875 C -2.921875 29.566406 -3.285156 28.761719 -4.015625 28.542969 C -4.089844 28.472656 -4.160156 28.472656 -4.234375 28.472656 C -2.699219 17.957031 3.578125 -12.628906 10 -38.253906 C 10 -38.328125 10.074219 -38.398438 10.148438 -38.472656 C 19.636719 -53.511719 23.359375 -65.484375 21.460938 -68.402344 Z M 12.484375 -48.109375 C 15.257812 -58.402344 17.738281 -63.367188 19.054688 -65.410156 C 18.761719 -62.710938 17.15625 -56.867188 12.484375 -48.109375 Z M 12.484375 -48.109375 "/></g></g></g><g fill="#000000" fill-opacity="1"><g transform="translate(276.652945, 124.741113)"><g><path d="M 30.515625 -16.207031 C 29.859375 -16.5 28.980469 -16.207031 28.691406 -15.550781 C 23.140625 -4.234375 18.980469 -0.65625 17.007812 -1.023438 C 16.207031 -1.167969 13.578125 -2.699219 12.921875 -15.476562 C 12.921875 -16.058594 12.484375 -16.570312 11.972656 -16.71875 C 11.386719 -16.863281 10.730469 -16.71875 10.4375 -16.207031 C 10 -15.695312 9.5625 -15.113281 9.125 -14.453125 C 7.300781 -11.972656 4.890625 -8.613281 1.972656 -5.476562 C 1.53125 -4.964844 1.167969 -4.671875 0.949219 -4.527344 C 0.4375 -7.082031 3.140625 -16.863281 7.445312 -19.929688 C 8.6875 -20.804688 10.367188 -21.460938 12.628906 -18.835938 C 13.140625 -18.25 14.015625 -18.175781 14.601562 -18.6875 C 15.183594 -19.125 15.257812 -20.074219 14.820312 -20.660156 C 12.046875 -23.871094 9.417969 -23.796875 7.664062 -23.214844 C 2.042969 -21.242188 -1.753906 -10.4375 -1.898438 -5.476562 C -1.972656 -3.429688 -1.386719 -2.117188 -0.21875 -1.679688 C 1.605469 -0.949219 3.429688 -2.921875 4.015625 -3.578125 C 6.496094 -6.277344 8.761719 -9.199219 10.367188 -11.460938 C 11.167969 -3.140625 13.140625 1.023438 16.425781 1.753906 C 16.71875 1.753906 17.007812 1.824219 17.300781 1.824219 C 22.265625 1.824219 27.59375 -6.863281 31.171875 -14.308594 C 31.535156 -15.039062 31.246094 -15.839844 30.515625 -16.207031 Z M 30.515625 -16.207031 "/></g></g></g></svg>