<svg xmlns="http://www.w3.org/2000/svg" xmlns:xlink="http://www.w3.org/1999/xlink" width="1080" zoomAndPan="magnify" viewBox="0 0 810 809.999993" height="1080" preserveAspectRatio="xMidYMid meet" version="1.0"><defs><clipPath id="15400e1d03"><path d="M 6 92 L 810 92 L 810 749.597656 L 6 749.597656 Z M 6 92 " clip-rule="nonzero"/></clipPath></defs><path fill="#fe654d" d="M 607.152344 393.40625 C 585.9375 376.660156 557.425781 366.460938 526.304688 366.441406 C 495.1875 366.460938 466.65625 376.660156 445.441406 393.40625 C 423.84375 410.460938 409.523438 434.484375 407.882812 461.753906 C 406.222656 489.773438 418.28125 515.839844 439.476562 535.140625 C 461.09375 554.769531 491.882812 567.101562 526.324219 567.101562 C 560.746094 567.101562 591.519531 554.769531 613.097656 535.121094 C 634.296875 515.839844 646.371094 489.773438 644.730469 461.738281 C 643.089844 434.503906 628.75 410.460938 607.152344 393.40625 Z M 607.152344 393.40625 " fill-opacity="1" fill-rule="nonzero"/><g clip-path="url(#15400e1d03)"><path fill="#fe715b" d="M 806.695312 456.410156 C 801.972656 423.15625 790.445312 391.925781 772.75 363.46875 C 756.496094 337.328125 735.628906 314.4375 710.78125 295.15625 L 710.820312 295.117188 L 710.144531 294.898438 C 709.632812 294.445312 709.230469 293.914062 708.703125 293.476562 L 448.761719 100.808594 C 433.074219 88.242188 410.089844 90.742188 397.484375 106.519531 C 384.898438 122.242188 387.433594 145.210938 403.195312 157.796875 L 512.425781 238.753906 L 161.476562 238.753906 C 136.394531 238.753906 115.871094 259.273438 115.871094 284.355469 C 115.871094 309.4375 136.394531 329.960938 161.476562 329.960938 L 291.976562 329.960938 L 22.347656 559.839844 C 3.230469 576.222656 1.003906 605.042969 17.402344 624.140625 C 26.433594 634.667969 39.203125 640.066406 52.042969 640.066406 C 62.550781 640.066406 73.09375 636.453125 81.707031 629.085938 L 245.039062 489.082031 C 244.636719 503.800781 244.328125 517.136719 244.402344 521.203125 C 244.402344 585.339844 316.527344 749.515625 529.625 749.515625 C 681.359375 749.515625 808.355469 658.308594 808.355469 507.613281 C 809.671875 490.578125 809.105469 473.464844 806.695312 456.410156 Z M 690.9375 515.167969 C 683.621094 534.996094 671.78125 553.546875 655.640625 569.746094 C 622.621094 602.945312 576.414062 621.734375 526.34375 621.804688 C 476.269531 621.898438 430.027344 603.253906 396.992188 570.148438 C 380.847656 554.003906 368.992188 535.46875 361.65625 515.675781 C 354.507812 496.25 351.714844 475.636719 353.558594 454.84375 C 355.347656 434.484375 361.4375 415.09375 371.269531 397.546875 C 380.921875 380.289062 394.199219 364.710938 410.5625 351.503906 C 442.667969 325.710938 483.511719 311.753906 526.304688 311.699219 C 569.101562 311.644531 609.925781 325.492188 642.046875 351.175781 C 658.410156 364.308594 671.671875 379.832031 681.304688 397.050781 C 691.136719 414.582031 697.246094 433.957031 699.054688 454.292969 C 700.878906 475.125 698.105469 495.722656 690.9375 515.167969 Z M 690.9375 515.167969 " fill-opacity="1" fill-rule="nonzero"/></g></svg>